<?xml version="1.0" standalone="no"?>
<!DOCTYPE svg PUBLIC "-//W3C//DTD SVG 1.1//EN" "http://www.w3.org/Graphics/SVG/1.1/DTD/svg11.dtd" >
<svg xmlns="http://www.w3.org/2000/svg">
<metadata>
This is a custom SVG webfont generated by Font Squirrel.
Designer    : Dimitri Castrique
Foundry     : Dimitri Castrique
Foundry URL : Donationware
</metadata>
<defs>
<font id="webfontPYzqMaLN" horiz-adv-x="697" >
<font-face units-per-em="1000" ascent="800" descent="-200" />
<missing-glyph horiz-adv-x="274" />
<glyph unicode=" "  horiz-adv-x="274" />
<glyph unicode="&#x09;" horiz-adv-x="274" />
<glyph unicode="&#xa0;" horiz-adv-x="274" />
<glyph unicode="!" horiz-adv-x="339" d="M374 721q0 -28 -14 -80l-26.5 -105.5l-23 -90l-17.5 -71.5l-14 -59l-9.5 -41.5t-6.5 -32t-2 -18.5q0 -13 3 -25q-22 -2 -32 -2q-77 0 -83 43q0 34 7 69q61 287 67 372q3 38 -6 77q58 21 92 21q65 0 65 -57zM249 69q0 -11 -13 -58q-41 -28 -88 -28q-26 0 -39.5 12.5 t-13.5 32.5q0 16 5 37t5 27q0 8 -1 13q44 21 78 21q32 0 49.5 -15t17.5 -42z" />
<glyph unicode="&#x22;" horiz-adv-x="390" d="M269 770q32 0 32 -24q0 -7 -1 -11q-4 -24 -33 -85q-8 -17 -19 -43t-15.5 -35.5t-12.5 -21t-16 -15t-20 -3.5q-22 0 -28.5 5t-6.5 21q0 12 14.5 84t14.5 92q0 6 -3 13q44 23 94 23zM452 770q32 0 32 -24q0 -7 -1 -11q-4 -24 -33 -85q-8 -17 -19 -43t-15.5 -35.5t-12.5 -21 t-16 -15t-20 -3.5q-22 0 -28.5 5t-6.5 21q0 12 14.5 84t14.5 92q0 6 -3 13q44 23 94 23z" />
<glyph unicode="#" horiz-adv-x="644" d="M659 723q-31 -55 -84 -169h22q42 0 86 14q-9 -58 -40.5 -77t-100.5 -19l-66 -184h26q54 0 102 23q-13 -66 -48.5 -86t-106.5 -20q-43 -132 -43 -172q0 -20 4 -33q-36 -11 -61 -11q-42 0 -42 34q0 39 51 183h-110q-56 -129 -56 -211q-28 -6 -51 -6q-44 0 -44 31q0 3 1 9 t1 11q16 62 60 166h-21q-56 0 -89 -16q14 57 24 69q20 27 96 30h24l71 183h-25q-68 0 -107 -15q17 66 45.5 82t119.5 16q45 114 45 170q0 11 -3 22q31 6 58 6q39 0 39 -33q0 -37 -53 -166h102q60 157 70 178q31 17 64 17t40 -26zM455 472h-105l-69 -184h105q27 80 69 184z " />
<glyph unicode="$" horiz-adv-x="566" d="M542 608q-6 7 -19.5 24t-19 22.5t-17 14.5t-24.5 12.5t-30 5.5q-6 -34 -22 -118.5t-24 -131.5q79 -55 119 -100t40 -103q0 -97 -73.5 -162t-182.5 -73q-4 -36 -4 -46q0 -7 4 -18q-20 -16 -39 -16q-29 0 -40 11q4 32 10 68q-69 3 -126.5 35t-57.5 84q0 28 20.5 58t54.5 49 q-2 -36 31 -84.5t94 -59.5l49 269q-68 43 -104 87t-36 98q0 93 64.5 156.5t167.5 74.5q1 6 1.5 12l1 12.5t0.5 10.5q0 22 -2 32q9 11 47 11q26 0 26 -36q0 -1 -5 -39q149 -10 149 -79q0 -36 -53 -81zM267 576q0 -57 60 -95q26 142 37 207q-44 -6 -70.5 -36t-26.5 -76z M420 194q0 56 -76 114l-41 -231q117 14 117 117z" />
<glyph unicode="%" horiz-adv-x="876" d="M744 417q118 0 118 -145q0 -112 -68.5 -196t-172.5 -84q-130 0 -130 127q0 115 74.5 206.5t178.5 91.5zM652 65q33 0 59 33t38 74.5t12 79.5q0 35 -11.5 62.5t-38.5 27.5q-32 0 -60 -34.5t-42.5 -80.5t-14.5 -87q0 -33 14 -54t44 -21zM272 -15q14 32 34.5 68l36.5 62.5 t45.5 69.5l43 62l49.5 68l45 62q143 199 298 385q-22 32 -53 32q-17 0 -52 -19q-83 -44 -188 -44q-92 0 -147 68q-47 -43 -47 -81q0 -23 40 -45q2 -14 2 -44q0 -42 -12 -86.5t-38 -78.5t-59 -34q-55 0 -55 78q0 57 22.5 111.5t62.5 79.5q-13 30 -51 30q-39 0 -72 -42.5 t-48.5 -94.5t-15.5 -94q0 -143 130 -143q99 0 167 85.5t68 190.5q0 6 -1 14q15 -5 38 -5q49 0 144 40q-7 -11 -336 -446q-7 -10 -21.5 -29l-21.5 -28l-19 -25t-18 -25.5l-15 -23t-14 -22.5t-10 -19.5t-7.5 -19.5t-3.5 -17q0 -32 79 -40z" />
<glyph unicode="&#x26;" horiz-adv-x="524" d="M598 163q3 1 11 7q12 8 13 5q0 -1 -1 -3q-8 -22 -25.5 -38t-28.5 -20.5l-34 -13.5q-21 -6 -65.5 4.5t-70.5 30.5q-93 -112 -199 -150q-44 -15 -73 -15q-73 0 -73 84q0 117 149 242q-34 29 -34 81q0 67 50.5 124t124.5 82q20 7 36 7q17 0 30 -8q21 -11 22 -35 q7 -41 -32 -102t-98 -114q52 -56 118 -100q53 95 53 160q-1 19 -8 27t-13.5 8.5t-6.5 1.5q0 7 21.5 19.5t34.5 16.5q46 17 46 -28q0 -13 -7 -48q-11 -81 -84 -181q3 -2 14.5 -8.5l21.5 -12t25.5 -13t28 -10.5t28.5 -4.5t26 4.5zM325 530q-30 -10 -48 -39.5t-18 -67.5 q0 -40 20 -61q43 41 67.5 83t23.5 68q-1 15 -14.5 19.5t-30.5 -2.5zM237 61q64 21 122 95q-79 49 -132 113q-67 -75 -67 -150q0 -64 46 -64q13 0 31 6z" />
<glyph unicode="'" horiz-adv-x="225" d="M274 772q33 0 35 -26q0 -7 -1 -12q-4 -23 -33 -90l-19 -46l-15 -37t-12 -22.5t-16.5 -16t-21.5 -3.5q-24 0 -31 5.5t-7 22.5q0 13 13.5 89t12.5 97q0 4 -4 14q47 25 99 25z" />
<glyph unicode="(" horiz-adv-x="401" d="M484 752q-110 -54 -183 -192q-78 -148 -84 -313q0 -240 119 -280q-42 -54 -88 -54q-51 0 -88.5 44.5t-55 111t-17.5 144.5q0 107 34.5 214.5t98.5 195.5q57 74 113.5 115t97.5 41q33 0 53 -27z" />
<glyph unicode=")" horiz-adv-x="384" d="M389 481q0 -106 -34.5 -213.5t-97.5 -196.5q-58 -75 -114 -115.5t-98 -40.5q-33 0 -52 27q118 64 193 219q74 151 74 310q0 220 -120 256q42 54 88 54q77 0 119 -91t42 -209z" />
<glyph unicode="*" horiz-adv-x="498" d="M349 559q38 -2 38 -34q0 -29 -17 -47q-3 -4 -9 -9q-5 1 -36.5 10t-52.5 13q29 -45 37 -78q11 -35 -21 -46q-28 -9 -50 1q-5 2 -11 6q-4 75 -5 91q-32 -38 -63 -59q-32 -20 -50 6q-16 22 -15 48q0 2 2 12q6 3 22.5 9l33 12.5l30.5 12.5q-49 19 -76 41q-28 25 -10 50 q15 22 41 28q8 2 13 2q55 -68 58 -71q3 49 15 85q14 35 45 25q28 -9 39 -30q2 -2 6 -12l-20.5 -31t-28.5 -46q47 13 85 11z" />
<glyph unicode="+" horiz-adv-x="541" d="M532 337q-8 -38 -19 -63q-9 -29 -52.5 -38t-119.5 -9q-24 -117 -24 -152q0 -17 3 -31q-32 -7 -51 -7q-60 0 -60 29q0 49 34 161h-43q-76 0 -125 -16q8 39 18 65q12 30 54 38.5t117 8.5q25 104 25 153q0 10 -2 26q30 7 48 7q34 0 46.5 -7t12.5 -25q0 -17 -4.5 -41 t-14.5 -62.5l-13 -50.5h27q93 0 143 14z" />
<glyph unicode="," horiz-adv-x="297" d="M248 75q0 -71 -73 -138q-86 -79 -154 -79q-11 0 -25 9t-14 25q0 3 2 7.5t2 6.5q122 21 122 120q0 27 -25 68q15 15 47 26.5t57 11.5q61 0 61 -57z" />
<glyph unicode="-" horiz-adv-x="348" d="M364 367q6 -11 3 -24q-17 -62 -46 -77t-98 -15h-29q-35 0 -73.5 -7t-40.5 -7q0 11 6 25q25 60 44 77t57 17h44h33q59 0 100 11z" />
<glyph unicode="." horiz-adv-x="284" d="M229 78q0 -27 -18 -73q-41 -22 -80 -22q-51 0 -56 40v15q11 62 11 63q0 8 -1 12q42 22 78 22q31 0 48.5 -15t17.5 -42z" />
<glyph unicode="/" horiz-adv-x="447" d="M584 775q-42 -40 -118.5 -159t-164.5 -279q-161 -303 -180 -413q-9 0 -32 -1t-34 -1q-30 0 -43 8.5t-4 33.5q12 42 190 375q152 285 223 380q30 33 53.5 46.5t62.5 13.5q11 0 47 -4z" />
<glyph unicode="0" horiz-adv-x="608" d="M639 549q-2 -100 -29 -200.5t-74.5 -184t-122 -136t-162.5 -52.5q-189 0 -189 224q0 80 17 162.5t51 158.5t80 135t108.5 94.5t131.5 35.5q103 0 146 -61t43 -176zM491 553q0 150 -85 150q-53 0 -98 -71.5t-70.5 -184.5t-28.5 -241q0 -151 81 -151q58 0 105 81t70.5 193 t25.5 224z" />
<glyph unicode="1" horiz-adv-x="509" d="M456 43q0 24 -22 38.5t-56 12.5q-22 -2 -37 -2q24 112 74.5 322t67.5 286q4 15 4 28q0 28 -28 61q-96 -35 -279 -35q-15 -36 -15 -78q0 -25 10.5 -35.5t29.5 -4.5q56 19 130 31q-58 -263 -125 -533q-4 -18 -12 -37q-24 -2 -42 -2q-9 0 -72 10q-20 -32 -20 -63 q3 -24 26 -36t53 -11q64 2 91 2h102q65 0 96 -16q24 41 24 62z" />
<glyph unicode="2" horiz-adv-x="608" d="M44 68q199 163 286 275q130 165 131 261q0 35 -26.5 59t-61.5 24q-41 0 -79.5 -20.5t-64.5 -58.5q-21 -21 -34 -25q-23 38 -23 68q0 58 75.5 96t173.5 38q91 0 141.5 -40t50.5 -119q0 -84 -76 -194q-44 -65 -119 -145q-13 -14 -95.5 -95.5l-90.5 -89.5q74 -2 95 -2 q29 0 73 2q44 3 88 17t47 14q8 0 8 -29q0 -68 -19.5 -93.5t-76.5 -25.5q-17 0 -84.5 2.5t-110.5 2.5q-36 0 -94.5 -3t-74.5 -3q-25 0 -29 4q-14 14 -14 59q0 14 4 21z" />
<glyph unicode="3" horiz-adv-x="580" d="M176 329q62 15 126 15q45 0 72 -34t27 -79q0 -69 -50.5 -117t-128.5 -48q-44 0 -84 20.5t-65 57.5q-29 -47 -29 -93q0 -74 170 -74q86 0 162.5 34t125.5 99t49 147q0 66 -39 108q-44 45 -105 44q-2 0 -2 2l2 2q106 54 142 93q52 57 52 130q0 149 -203 149 q-90 0 -149 -29.5t-59 -82.5q0 -18 40 -68q20 41 59 65t84 24q41 0 64.5 -22t23.5 -64q0 -59 -52.5 -97t-135.5 -66q-29 -8 -40.5 -12t-31 -13.5t-27.5 -22t-8 -29.5q0 -18 10 -39z" />
<glyph unicode="4" horiz-adv-x="617" d="M577 321q34 0 34 -28q0 -14 -14.5 -42.5t-31.5 -46.5q-46 13 -93 14q-27 -133 -27 -161q0 -25 11 -49q-52 -24 -92 -24q-31 0 -44.5 12t-13.5 38q0 32 34 186q-64 0 -159 -7t-104 -7q-33 0 -33 60q0 12 4 21q43 106 221 291q146 152 254 215q30 0 49.5 -11.5t19.5 -24.5 q0 -11 -15 -99q-12 -52 -45 -184.5l-39 -155.5q34 0 57.5 1.5t26.5 1.5zM362 316q13 55 42.5 159t39.5 142q-75 -64 -171 -162q-74 -74 -123 -146q23 1 96 3t116 4z" />
<glyph unicode="5" horiz-adv-x="601" d="M277 376q62 0 96 -33q41 -36 41 -93q0 -90 -51 -138.5t-137 -48.5q-40 0 -74.5 13.5t-46.5 23t-38 32.5q-23 -41 -23 -78q0 -77 158 -77q154 0 258 87t104 221q0 95 -57 144t-152 49q-54 0 -86 -7q21 71 62 190q36 -5 99 -5q91 0 143 28t73 110q-17 3 -41 -5 q-74 -23 -169 -23q-81 0 -172 11q-117 -383 -118 -387q-4 -12 9 -17t35 -5q26 0 56 5q8 3 31 3z" />
<glyph unicode="6" horiz-adv-x="608" d="M614 716q0 -43 -8 -69q-43 38 -97 38q-90 0 -164 -90.5t-108 -209.5q83 70 163 70q81 0 126 -42.5t45 -126.5q0 -131 -87.5 -220t-209.5 -89q-207 0 -207 221q0 93 33.5 195.5t90 190t141.5 144.5t178 57q99 0 104 -69zM435 239q0 57 -27 87t-78 30t-108 -43 q-15 -63 -15 -116q0 -137 99 -137q62 0 95.5 50t33.5 129z" />
<glyph unicode="7" horiz-adv-x="484" d="M626 784q6 -28 -3 -61t-25 -52q-128 -149 -216 -276q-179 -257 -179 -378q0 -19 1 -27q-33 -13 -70 -13q-85 0 -85 58q0 49 61 154t146 214q125 159 207 254q-160 -8 -286 -8q-50 0 -50 26q3 61 40 104q18 0 118.5 -4t171.5 -4q112 0 169 13z" />
<glyph unicode="8" horiz-adv-x="608" d="M630 648q0 -134 -180 -234q117 -85 117 -184q0 -115 -90 -183.5t-214 -68.5q-103 0 -158 44.5t-55 127.5q0 140 213 254q-82 70 -82 154q0 98 77 163t187 65q90 0 137.5 -35.5t47.5 -102.5zM495 629q0 38 -21 59t-57 21q-50 0 -77.5 -30t-27.5 -82q0 -68 77 -136 q106 76 106 168zM434 188q0 72 -113 169q-126 -90 -126 -199q0 -103 97 -103q58 0 100 39.5t42 93.5z" />
<glyph unicode="9" horiz-adv-x="608" d="M627 552q-3 -128 -61 -259t-164.5 -223t-230.5 -92q-103 0 -103 82q0 30 17 59q2 -1 9 -7.5t11 -9.5t13 -9t17 -8.5t20 -5t25 -2.5q90 0 167.5 92.5t110.5 210.5q-78 -73 -167 -73q-80 0 -124 44t-44 126q0 125 87.5 215.5t210.5 90.5q109 0 157.5 -56.5t48.5 -174.5z M486 565q0 138 -103 138q-61 0 -93 -50t-32 -130q0 -54 25.5 -84t73.5 -30q46 0 114 41q13 55 15 115z" />
<glyph unicode=":" horiz-adv-x="284" d="M235 78q0 -27 -18 -73q-41 -22 -80 -22q-51 0 -56 40v15q11 62 11 63q0 8 -1 12q42 22 78 22q31 0 48.5 -15t17.5 -42zM309 474q0 -27 -18 -73q-41 -22 -80 -22q-51 0 -56 40v15q11 62 11 63q0 8 -1 12q42 22 78 22q31 0 48.5 -15t17.5 -42z" />
<glyph unicode=";" horiz-adv-x="297" d="M309 474q0 -27 -18 -73q-41 -22 -80 -22q-51 0 -56 40v15q11 62 11 63q0 8 -1 12q42 22 78 22q31 0 48.5 -15t17.5 -42zM248 75q0 -71 -73 -138q-86 -79 -154 -79q-11 0 -25 9t-14 25q0 3 2 7.5t2 6.5q122 21 122 120q0 27 -25 68q15 15 47 26.5t57 11.5q61 0 61 -57z " />
<glyph unicode="&#x3c;" horiz-adv-x="421" d="M197 336q158 -119 142 -233q-3 -21 -15 -31q-35 37 -101.5 92.5t-119.5 91.5q-4 2 -13 8.5t-12.5 8.5t-11 8t-10.5 10.5l-8 11.5t-7 14.5t-3.5 18t-1.5 22.5q18 14 36 22q75 30 164 88t161 122q14 13 35 28q7 -5 11 -16t3 -17q-12 -60 -78.5 -124.5t-170.5 -124.5z" />
<glyph unicode="=" horiz-adv-x="582" d="M524 240q-9 -50 -18.5 -70.5t-29.5 -26.5q-65 -13 -155 -13h-38q-7 0 -20 0.5t-19 0.5q-98 0 -161 -12q7 40 17.5 63t31 32.5t35.5 11t52 1.5h153q80 0 152 13zM556 424q-8 -49 -17.5 -69.5t-29.5 -27.5q-63 -13 -152 -13h-37q-6 0 -19 0.5t-19 0.5q-96 0 -158 -12 q4 23 10 40.5t11.5 29t16.5 19l17 11.5t22.5 6t25 2h30.5h150q79 0 149 13z" />
<glyph unicode="&#x3e;" horiz-adv-x="421" d="M287 354q-158 119 -142 233q3 21 15 31q35 -37 101.5 -92.5t119.5 -91.5q4 -2 13 -8.5t12.5 -8.5t11 -8t10.5 -10.5l8 -11.5t7 -14.5t3.5 -18t1.5 -22.5q-18 -14 -36 -22q-75 -30 -164 -88t-161 -122q-14 -13 -35 -28q-7 5 -11 16t-3 17q12 60 78.5 124.5t170.5 124.5z " />
<glyph unicode="?" horiz-adv-x="507" d="M383 786q91 0 142 -40.5t51 -125.5q0 -80 -64 -147q-26 -24 -86 -67.5t-93 -76.5t-33 -65q0 -26 15 -56q-47 -32 -90 -32q-27 0 -43.5 23.5t-16.5 46.5q0 54 41 90q9 8 41 31t60 45.5t58.5 53.5t48.5 67.5t18 74.5q0 43 -25 65.5t-66 22.5q-37 0 -66.5 -23t-42.5 -58 q-12 -16 -25 -19q-44 32 -44 66q0 56 69 90t151 34zM226 120q64 0 64 -55q0 -7 -12 -55q-40 -27 -85 -27q-50 0 -50 43q0 16 4.5 35.5t4.5 25.5q0 8 -1 13q43 20 75 20z" />
<glyph unicode="@" horiz-adv-x="896" d="M625 -9q4 -11 4 -26t-6 -29q-15 -29 -89.5 -50t-157.5 -21q-145 0 -226 70.5t-81 208.5q0 141 77.5 262t202.5 190.5t263 69.5q144 0 229 -67.5t85 -199.5q0 -120 -77 -218t-189 -98q-48 0 -83 33.5t-36 81.5q-90 -127 -188 -127q-84 0 -84 99q0 63 35.5 131t95 114.5 t119.5 46.5q45 0 87 -28q19 22 59 22q18 0 46 -10q-27 -48 -49.5 -122t-22.5 -115q0 -54 41 -54q64 0 102 69t38 160q0 101 -63 153t-176 52q-164 0 -285 -129.5t-121 -302.5q0 -106 61 -161t171 -55q123 0 218 50zM577 376q-19 30 -53 30q-57 0 -103.5 -78t-46.5 -145 q0 -39 30 -39q37 0 89.5 74t83.5 158z" />
<glyph unicode="A" horiz-adv-x="644" d="M124 3q-46 -17 -93 -17q-51 0 -51 35q0 21 16 52q77 141 265 455q115 194 130 222q56 42 125 34q42 -4 45 -71q0 -51 1 -83q0 -18 1.5 -47.5t1.5 -40.5q2 -21 8 -136.5t6 -118.5q6 -99 21 -167q15 -72 47 -101q-56 -39 -124 -33q-54 5 -67 98q-2 15 -16 164 q-18 -14 -46 -14q-82 -3 -162 -3q-31 -16 -47 -46q-11 -16 -42 -80q-27 -67 -19 -102zM412 316q1 0 25 3q-2 166 -14 322l-175 -325h164z" />
<glyph unicode="B" horiz-adv-x="648" d="M661 624q-7 -137 -178 -207q76 -15 117 -60t41 -108v-5q-3 -105 -99 -181q-98 -79 -254 -79q-88 0 -162 16q-19 5 -35.5 27.5t-16.5 46.5q0 23 3 36l30 126l32.5 135l27 117t21 99t7.5 54q0 6 -0.5 11.5t-1.5 10.5t-2.5 7.5t-3.5 1.5q-13 -3 -32 -3q-4 1 -3 17q0 14 6 28 q9 17 17.5 26t14.5 11.5t25 8.5q98 26 196 26q29 0 44 -1q104 -5 155 -42.5t51 -118.5zM491 234q0 104 -130 122q-13 3 -30 1q-10 -1 -31 -1q-15 0 -22 12q-39 -159 -51 -232q-2 -14 -2 -38q35 -30 97 -32q78 0 125 48q42 47 44 115v5zM520 603v7q0 95 -121 95q-26 0 -73 -9 q10 -20 10 -44q0 -22 -5 -44q-17 -81 -39 -173q73 7 80 8q69 12 107.5 55.5t40.5 104.5z" />
<glyph unicode="C" horiz-adv-x="607" d="M694 686q0 -63 -94 -104q-15 63 -44.5 93t-83.5 30q-57 0 -104.5 -44.5t-76.5 -112t-44.5 -142.5t-15.5 -142q0 -186 143 -186q50 0 108 29t108 76q14 -39 14 -54q0 -55 -95 -103t-202 -48q-122 0 -179 69.5t-57 205.5q0 134 59.5 257t165 200t228.5 77q76 0 123 -25 t47 -76z" />
<glyph unicode="D" d="M424 785q144 0 222 -66.5t78 -204.5q0 -139 -65 -261.5t-171.5 -195t-225.5 -72.5q-109 0 -195 66q-1 9 5 38q12 54 58 246.5t59 264.5q3 15 3 24q0 16 -15 24.5t-15 18.5q0 41 23 75q115 43 239 43zM320 76q69 0 128.5 61t92.5 155t33 195q0 99 -43.5 154t-125.5 55 q-33 0 -78 -10q7 -21 7 -46q0 -33 -18.5 -121.5t-47.5 -212.5t-40 -176q7 -29 28 -41.5t64 -12.5z" />
<glyph unicode="E" horiz-adv-x="539" d="M208 758q126 12 254 12q22 0 57 2t48 2q52 0 69 -18q-6 -41 -27 -72.5t-52 -31.5q-1 0 -26.5 12.5t-57.5 12.5h-37q-15 0 -40 1t-35 1h-44q12 -13 12 -30q0 -11 -2 -16q-24 -112 -43 -192h59q85 0 177 15q0 -10 -3 -24q-6 -23 -18 -39.5t-25 -25t-34 -13.5t-38.5 -6 t-46.5 -1h-60h-30q-36 -113 -36 -182q0 -12 2 -22t5 -17t9.5 -12.5t10.5 -9.5t13 -6.5t13.5 -4t15.5 -2t14 -0.5h15h13q60 0 131 21.5t74 21.5q0 -45 -17 -74.5t-53 -43.5t-76 -18.5t-103 -4.5q-24 0 -70 0.5t-69 0.5q-51 0 -68 22t-17 68q0 49 22 137q5 21 17.5 68l18 66.5 t15 58l14 57.5t10.5 48t9 47t5 38t2 35q-1 32 -5 31q-13 -3 -32 -3q-4 1 -3 17q0 14 6 28q13 27 23.5 35.5t33.5 10.5z" />
<glyph unicode="F" horiz-adv-x="492" d="M292 419h46q152 0 206 17q0 -49 -22.5 -75t-50.5 -29q-112 -8 -155 -8q-29 0 -43 -2q-1 -3 -12 -44q-39 -172 -39 -219q0 -11 5 -28.5t5 -21.5q-34 -24 -98 -24q-36 0 -50.5 13t-14.5 41q0 26 11 72l27 119q5 21 17.5 68l18 66.5t15 58l14 57.5t10.5 48t9 47t5 38t2 35 q-1 32 -5 31q-13 -3 -32 -3q-4 1 -3 17q0 15 6 28q14 27 24 35.5t33 10.5q126 12 254 12q21 0 57 2t48 2q52 0 69 -18q-6 -41 -27 -72.5t-52 -31.5q-1 0 -26.5 12.5t-57.5 12.5h-37q-15 0 -40 1t-35 1h-46q14 -15 14 -32q0 -10 -1 -17q-21 -105 -49 -220z" />
<glyph unicode="G" horiz-adv-x="658" d="M502 -5q-22 0 -29.5 6t-7.5 27q-58 -47 -173 -47q-102 0 -162.5 72.5t-60.5 190.5q0 105 37.5 205t99 174t145.5 118.5t173 44.5q88 0 137.5 -25.5t49.5 -70.5q0 -56 -93 -104q-9 57 -47 88t-94 31q-73 0 -132.5 -74t-88 -173.5t-28.5 -193.5q0 -89 30.5 -137.5 t90.5 -48.5q40 0 94 29q33 46 56 170q0 24 -12 30q-26 0 -49 -10q0 22 5 35.5t13 21.5t26.5 12t37.5 5.5t56 3.5q15 1 24 1q50 3 51 -12q1 -10 -10 -50q-46 -194 -46 -245q0 -11 5 -29t5 -23q-36 -22 -103 -22z" />
<glyph unicode="H" horiz-adv-x="706" d="M278 337q-7 -17 -14 -51q-69 -265 -72 -286q-3 -19 -1 -43q-16 -10 -55 -20.5t-64 -10.5q-24 0 -32.5 7.5t-6.5 25.5q0 24 17 75q136 405 145 656q0 26 -16 58q59 33 103 33q29 2 45 -13t16 -45q0 -23 -11.5 -107.5t-30.5 -176.5h208q26 0 37 3q11 28 16 51l69 302 q14 69 79 63q51 -5 73 -31q-8 -8 -24.5 -69t-35.5 -150.5l-35.5 -169.5l-31.5 -157.5l-16 -82.5q-15 -75 -15 -103q0 -41 23 -73q0 -15 -46.5 -27t-74.5 -12q-32 0 -44.5 16t-12.5 48q0 35 15 95q14 57 46 210q-34 -13 -123 -13q-17 0 -49.5 0.5t-47.5 0.5q-18 0 -33 -3z " />
<glyph unicode="I" horiz-adv-x="310" d="M92 145q53 211 91 390q15 69 18 121q0 11 0.5 21.5t-5.5 20.5t-18 15q-7 1 -10 10q-3 10 3 14q65 38 127 38q37 0 53 -20q16 -19 10 -57q-98 -418 -114 -498q-15 -75 -15 -103q0 -39 23 -73q0 -15 -47 -27t-74 -12q-31 0 -44 16t-13 48q0 34 15 96z" />
<glyph unicode="J" horiz-adv-x="339" d="M-15 -71q41 3 67.5 30.5t47.5 74.5q19 45 34 115q57 225 92 391q15 69 18 121q0 12 0.5 22.5t-5.5 20t-18 14.5q-7 3 -10 11q-3 10 3 14q63 37 127 37q38 0 53 -19q16 -19 10 -58l-114 -498q-31 -135 -77 -217q-38 -73 -101 -113.5t-130 -40.5q-50 0 -80 18t-30 46 q0 33 57 59q25 -28 56 -28z" />
<glyph unicode="K" horiz-adv-x="662" d="M686 77q3 0 5 -2q1 -1 1 -2.5t-1 -2.5q-13 -42 -45 -66t-71 -24q-38 0 -71.5 22.5t-70.5 76.5q-48 69 -91.5 152t-61.5 135q-62 -266 -62 -308q0 -12 4.5 -26.5t4.5 -17.5q-39 -29 -110 -29q-55 0 -56 41q0 28 14 80q5 17 22.5 81.5t23 87t20 77.5t21 86.5l16 78.5 t15.5 88.5t10 83.5q2 25 -11 58q52 30 105 33q30 2 45 -13t13 -45q-3 -25 -22.5 -124.5t-42.5 -185.5q12 11 36 28q143 97 204.5 163.5t63.5 125.5q0 21 -4 37q45 11 65 11q59 0 59 -59q0 -61 -65 -132q-29 -31 -86 -75.5t-96.5 -78.5t-44.5 -54q70 -139 138.5 -220 t125.5 -81z" />
<glyph unicode="L" horiz-adv-x="540" d="M80 60q0 68 47.5 292.5t96.5 372.5q8 25 34 45q22 15 50 13q51 -3 90 -34q-28 -31 -38 -57q-50 -138 -89 -307t-39 -254q0 -11 3 -19q34 -12 114 -12q113 0 181 35l4 2q2 0 2 -6q-1 -34 -7 -58t-21 -39.5t-29.5 -24t-45.5 -12.5t-55.5 -5t-72.5 -1q-105 0 -161 -1 q-38 0 -51 17t-13 53z" />
<glyph unicode="M" horiz-adv-x="903" d="M785 746q5 -10 -2 -25q-26 -61 -92 -161l-189 -297q-12 -19 -21 -30q-7 19 -11 39q-77 363 -88 464q-2 20 -19 32.5t-38 10.5q-53 -3 -106 -33q14 -32 12 -58l-49 -183q-9 -35 -62 -219.5t-58 -205.5q-8 -31 -8 -50q3 -44 63 -44q39 0 91 18q-13 28 -13 62q0 68 88 393 q1 2 5 19.5t7 26.5q3 -7 6 -21q83 -388 83 -390q9 -38 35 -38q44 0 85 37q41 93 225 379q16 24 28 40q-6 -58 -35.5 -245t-29.5 -221q1 -34 17 -48t45 -14q46 0 113 41q-30 52 -30 109t21 199.5t55 292.5q20 86 27 125q3 17 -10 23t-31 4q-50 -5 -72 -11t-42 -21z" />
<glyph unicode="N" horiz-adv-x="734" d="M625 2q-48 -16 -103 -16q-27 0 -55 67q-48 117 -169 435q-3 7 -8 23t-8 24q-35 -132 -65 -274.5t-30 -177.5q0 -47 22 -75q-57 -22 -94 -22q-60 0 -60 58q0 17 6.5 49t14.5 61.5l23.5 85.5l24.5 91q80 304 80 343q0 33 -18 57q60 46 109 46q32 0 55.5 -36t50.5 -124 q104 -339 157 -447q11 32 58 228q48 199 48 282q0 47 -19 77q52 23 90 23q60 0 60 -67q0 -19 -3 -35q-1 -11 -82 -330.5t-85 -345.5z" />
<glyph unicode="O" d="M504 786q109 0 166.5 -66.5t57.5 -189.5q0 -95 -33.5 -193.5t-90 -178.5t-139 -131t-171.5 -51q-109 0 -164.5 66t-55.5 190q0 98 32.5 197t88 178t137.5 129t172 50zM340 60q55 8 102 62.5t75.5 128.5t44.5 150t16 136q0 76 -27 120.5t-84 44.5q-59 0 -115.5 -76 t-89.5 -182t-33 -197t27 -143t84 -44z" />
<glyph unicode="P" horiz-adv-x="598" d="M247 220q-21 -103 -21 -155q0 -27 10 -55q-41 -26 -109 -26q-60 0 -60 44q0 28 13 84q91 366 111 480q7 42 7 57q0 13 -5 17.5t-11.5 3.5t-11.5 3t-5 16q3 40 16 51q89 47 219 47q132 0 202.5 -42.5t70.5 -143.5q0 -120 -95.5 -205t-233.5 -85q-39 0 -39 72q0 4 9 4 q96 0 152 50.5t56 144.5q0 121 -145 121q-32 -3 -46 -6q9 -21 9 -45q0 -20 -8 -58l-40.5 -172.5t-44.5 -201.5z" />
<glyph unicode="Q" d="M765 -76q3 1 5 -0.5t1 -4.5q-5 -14 -21 -34q-20 -28 -48 -49q-59 -50 -116 -50q-23 2 -43.5 8t-30 10.5l-34.5 17t-36 18.5q-24 12 -66.5 38.5t-53.5 32.5q-33 19 -62 31q-37 14 -89 24q-48 8 -66 19q-8 6 -8 20q0 8 9 11q17 6 42 10q-70 64 -70 205q0 98 32.5 197 t88 178t137 129t171.5 50q110 0 167.5 -66.5t57.5 -189.5q0 -110 -43 -222t-122 -199.5t-176 -117.5q67 -30 81 -35q90 -34 139 -43q25 -5 48 -5q21 0 42 3q26 4 39 7q10 2 25 7zM471 701q-59 0 -115.5 -76t-89.5 -182t-33 -197t27 -143t84 -44q55 8 102 62.5t75.5 128.5 t44.5 150t16 136q0 76 -27.5 120.5t-83.5 44.5z" />
<glyph unicode="R" horiz-adv-x="669" d="M671 618q0 -91 -62.5 -157.5t-168.5 -97.5q34 -87 66.5 -148t62.5 -94t49 -47.5t45 -28.5q-12 -31 -45.5 -46.5t-73.5 -15.5q-39 0 -64.5 20.5t-50.5 66.5q-63 115 -122 284q-20 2 -33 8q-7 -35 -25 -113t-25.5 -117.5t-7.5 -62.5q0 -16 2.5 -34.5t2.5 -23.5 q0 -11 -45.5 -18t-61.5 -7q-49 0 -49 44q3 32 4 37l56.5 236t55.5 240q15 72 15 103q0 20 -8 30.5t-25 21.5q15 44 86.5 66.5t172.5 22.5q117 0 183 -42t66 -127zM293 452q0 -1 -1.5 -7.5t-1.5 -9.5q0 -21 38 -21q90 0 143.5 49t53.5 133q0 109 -124 109q-49 0 -63 -8.5 t-14 -30.5q12 -2 12 -16q0 -7 -1 -10q-5 -29 -20.5 -92.5t-21.5 -95.5z" />
<glyph unicode="S" horiz-adv-x="577" d="M127 192q-3 -16 2 -35q12 -45 51 -70.5t93 -25.5q65 0 102.5 32t37.5 92q0 61 -63 113q-16 13 -48 36.5t-50.5 39t-40 39t-32 51t-10.5 60.5q0 115 88 188.5t210 73.5q154 0 154 -78q0 -24 -20.5 -49.5t-45.5 -36.5q-26 42 -56.5 62t-77.5 20q-55 0 -86.5 -26t-31.5 -76 q0 -43 28 -72t141 -116q83 -75 83 -166q0 -78 -49.5 -141.5t-123.5 -96.5t-153 -33q-73 0 -136 28.5t-63 78.5q0 31 27.5 63.5t69.5 44.5z" />
<glyph unicode="T" horiz-adv-x="437" d="M302 673q-7 0 -20 0.5t-20 0.5q-66 0 -122 -29q-14 -9 -25 -9q-2 26 -2 38q0 101 100 101q52 0 151.5 -1.5t147.5 -1.5q35 0 63.5 3.5t59 10.5t39.5 8q2 -8 2 -15q-3 -109 -101 -109q-13 0 -51 2t-50 2q-26 0 -31 -18q-84 -360 -105 -457q-19 -89 -19 -131q0 -22 13 -56 q-44 -28 -108 -28q-63 0 -63 49q0 41 16 102q10 37 61.5 256.5t58.5 254.5q5 22 5 27z" />
<glyph unicode="U" horiz-adv-x="703" d="M551 -20q-37 4 -48.5 30.5t-11.5 70.5v35q0 3 -1 2q-60 -69 -116 -105t-126 -36q-85 0 -123 52t-38 130q0 25 3 47q7 50 50.5 239.5t45.5 232.5q0 18 -3 29t-11.5 23t-9.5 14q20 17 58 25.5t68 8.5q52 0 55 -45q0 -36 -15.5 -108.5t-40.5 -173t-35 -145.5 q-20 -93 -20 -133q0 -92 72 -92q69 0 142 86q33 45 64 159q70 254 88 386q0 2 -2 20q-7 46 85 46q49 0 64.5 -7.5t15.5 -29.5q0 -9 -3 -20t-9 -28t-9 -27q-108 -361 -108 -507q0 -25 3 -45q13 -77 40 -101q-56 -39 -124 -33z" />
<glyph unicode="V" horiz-adv-x="643" d="M233 12q-21 197 -53 444q-11 87 -32 173q-22 76 -58 101q55 47 127 49q57 0 79 -98q9 -43 15 -91q21 -146 39 -385q207 330 254 452q26 62 17 101q45 17 91 17q51 0 53 -35q0 -11 -15 -52q-17 -46 -84 -152q-260 -409 -308 -529q-6 -10 -38.5 -21t-55.5 -11 q-15 0 -21.5 8t-9.5 29z" />
<glyph unicode="W" horiz-adv-x="969" d="M559 712q-5 -12 -13 -36q-33 -95 -233 -473q1 15 1 53q0 115 -7 295q-5 133 -24 180.5t-62 47.5q-50 0 -113 -48q51 -51 58 -178q16 -318 22 -548q1 -30 34 -28q35 4 65.5 16t33.5 21q13 37 28 62q8 14 60.5 113.5l99 186t48.5 86.5q26 -398 33 -457q3 -30 33 -28 q35 4 65.5 16t34.5 21q7 22 27.5 63l40.5 78l55 100l53 97l42 78l55.5 104t40.5 92.5t22 88.5q0 64 -89 64q-32 0 -56 -8q9 -27 9 -55q0 -23 -4 -40q-19 -77 -68 -187t-153 -317l-3 42q-1 18 -6.5 202t-5.5 206q0 15 1 42.5t1 40.5q0 21 -7.5 31.5t-22.5 8.5q-33 -5 -96 -33 z" />
<glyph unicode="X" horiz-adv-x="681" d="M423 463q-36 99 -54.5 209.5t-10.5 133.5q-145 -31 -145 -130q0 -47 23 -141.5t53 -171.5q-69 -71 -142 -173q-78 -110 -78 -150q0 -42 69 -42q31 0 68 13q-14 36 25 120t105 152q51 -143 95.5 -220.5t93.5 -77.5q31 0 70 21.5t72 62.5q-74 24 -116 103q-64 122 -92 207 l44 44l46 46l40 40.5t40.5 42.5l31 36t27.5 36q41 58 41 102q0 52 -68 52q-40 0 -79 -17q9 -18 9 -45q0 -55 -168 -253z" />
<glyph unicode="Y" horiz-adv-x="581" d="M463 378l63 76.5l83 103t63 98t30 90.5q0 30 -27.5 47.5t-79.5 17.5q-19 0 -29 -2q3 -17 3 -34q0 -36 -12 -61q-7 -16 -14 -29l-12.5 -23.5t-20.5 -35l-25.5 -41.5l-40.5 -66l-54 -87q-45 216 -78 293q-25 60 -84 60q-65 0 -131 -63q4 -1 12 -5.5t13 -6.5 q40 -18 84 -128.5t68 -262.5q-6 -51 -54 -150.5t-48 -138.5q0 -46 63 -46q55 0 105 25q-11 29 -11 54q0 51 41.5 148.5t92.5 166.5z" />
<glyph unicode="Z" horiz-adv-x="640" d="M194 93q106 -3 215 -3h72q90 0 147 48q1 -13 1 -37q0 -106 -99 -112q-42 -2 -62 -2q-35 0 -73 2t-84 5.5t-72 4.5q-13 1 -38 1q-75 0 -149 -16q-24 11 -34 47q-7 26 10 49q3 4 232.5 275t265.5 318q-106 -2 -159 -2q-13 0 -51 -2t-50 -2q-46 0 -73 27.5t-28 82.5 q0 6 2 16q11 -2 39.5 -9t58 -11t64.5 -4q201 0 392 25q7 -24 7 -43q0 -28 -21 -58t-73 -87z" />
<glyph unicode="[" horiz-adv-x="369" d="M241 686q9 42 52 62.5t94 20.5q15 0 43.5 2.5t42.5 2.5q6 0 10.5 -2t3.5 -5q-9 -41 -24 -66q-3 -4 -23 -7t-45.5 -6.5t-36.5 -8.5q-62 -251 -126 -577q-8 -48 -8 -59q0 -49 57 -49q37 0 65 3q-6 -55 -31 -69t-79 -14q-72 0 -103.5 15t-32.5 66q0 43 13 111 q48 260 128 580z" />
<glyph unicode="\" horiz-adv-x="440" d="M74 775q33 -40 82.5 -160t99.5 -278q91 -306 86 -413q9 0 31.5 -1t33.5 -1q29 0 44 8.5t12 33.5q-1 45 -104 375q-88 289 -135 380q-24 34 -43.5 47t-58.5 13q-12 0 -48 -4z" />
<glyph unicode="]" horiz-adv-x="369" d="M388 686q6 42 -28 62.5t-85 20.5q-15 0 -42.5 2.5t-41.5 2.5q-16 0 -17 -7q-6 -51 -4 -66q0 -4 19 -7t44 -6.5t35 -8.5q-65 -354 -116 -577q-13 -46 -16 -59q-13 -26 -30.5 -37.5t-46.5 -11.5q-37 0 -64 3q-8 -23 -8 -42q0 -27 19.5 -34t62.5 -7q72 0 109.5 15t61.5 66 q2 5 8.5 25l13 41.5t11.5 44.5q46 211 115 580z" />
<glyph unicode="^" horiz-adv-x="583" d="M576 323q-13 -13 -30 -13q-107 0 -188 224q-138 -193 -256 -224h-2q-22 0 -30 14q18 22 31 35q72 72 138.5 161t104.5 164q9 18 25 36q11 -2 20 -6t15 -7t12 -10.5l9 -11t7.5 -14.5t5.5 -14.5t5.5 -17.5l5.5 -17q23 -71 61.5 -160.5t65.5 -138.5z" />
<glyph unicode="_" horiz-adv-x="476" d="M442 -74q-7 -42 -16 -70q-3 0 -9.5 1.5t-8.5 1.5q-60 7 -120 7q-8 0 -29 -0.5t-34 -0.5h-62q-118 0 -136 31l2.5 12.5t2 11t1.5 9t2 7.5t2 6t2 6t2.5 4.5t3 4.5t3.5 4q6 -2 9 -2q41 -4 124 -4h63q23 0 52.5 0.5t36.5 0.5q94 0 109 -30z" />
<glyph unicode="`" horiz-adv-x="439" d="M478 630q0 -9 -15 -14t-28 -3q-90 18 -156.5 54t-66.5 66q0 21 38 40.5t80 13.5l14.5 -22t16 -23.5t15.5 -20t20 -23t21 -19.5l24.5 -17.5t27 -20t9.5 -11.5z" />
<glyph unicode="a" horiz-adv-x="578" d="M565 133q46 50 61 50q5 0 5 -9q0 -55 -62 -118.5t-115 -63.5q-89 0 -89 106q0 46 5 81q-113 -183 -214 -188h-11q-108 0 -108 141q2 96 46.5 191.5t118 158.5t151.5 63q62 0 98 -28q24 26 63 26q43 0 89 -24q-27 -40 -62.5 -180t-35.5 -199q0 -17 11 -42q17 3 49 35z M306 188q76 110 117 224q-8 29 -31 43.5t-49 14.5q-38 0 -76 -53.5t-61 -128.5t-23 -140q3 -52 33 -52q28 0 90 92z" />
<glyph unicode="b" horiz-adv-x="562" d="M160 546q18 90 18 123q0 26 -10 47q54 31 105 31q52 0 52 -47q0 -68 -78 -351q123 199 239 199q102 0 102 -143q0 -91 -41 -186t-115.5 -161t-157.5 -66q-60 0 -108 30q-25 -26 -68 -26q-38 0 -79 23q26 41 47 117q68 286 94 410zM442 347q2 20 2 35q0 60 -33 60 q-34 0 -108.5 -114t-106.5 -201q2 -28 27.5 -43.5t57.5 -15.5q52 0 100.5 85.5t60.5 193.5z" />
<glyph unicode="c" horiz-adv-x="456" d="M463 162q8 -15 8 -34q0 -40 -44.5 -73t-100 -49t-101.5 -16q-180 0 -180 169q0 151 102 269t239 118q126 0 126 -63q0 -55 -94 -85q-10 44 -25.5 61t-45.5 17q-64 0 -105.5 -78.5t-41.5 -211.5q0 -49 19 -81t57 -32q53 0 102.5 24t84.5 65z" />
<glyph unicode="d" horiz-adv-x="579" d="M569 137q46 50 60 50q6 0 6 -9q0 -55 -62 -118t-115 -63q-90 0 -90 109q0 37 6 77q-117 -192 -235 -192q-47 0 -74 36t-27 97q0 69 26 143.5t68 134.5t101.5 99t120.5 39q49 0 96 -26q23 90 23 154q0 28 -10 44q53 30 102 30q56 0 56 -56q0 -34 -13 -90l-45.5 -182.5 t-41.5 -173.5t-12 -96q0 -22 11 -42q15 3 49 35zM336 228q49 79 89 169q-5 29 -28 47.5t-52 18.5q-39 0 -77 -48.5t-61.5 -122.5t-23.5 -144q3 -52 32 -52q41 0 121 132z" />
<glyph unicode="e" horiz-adv-x="480" d="M296 69q95 9 177 88q23 -42 -6 -79q-27 -34 -75 -54q-74 -34 -158 -34q-89 0 -137 38.5t-52 115.5t22 150t78 129q103 123 242 123q63 0 93.5 -26.5t29.5 -77.5q0 -52 -62 -110t-161 -93q-33 -11 -65 -30t-33 -36q-2 -40 11 -58q37 -54 96 -46zM209 286l-10 -45q3 7 7 13 t7.5 10.5t10 10l9.5 8t12 7.5t11.5 6.5l13 7.5t13.5 7q44 24 63.5 48.5t28.5 54.5q8 27 -2 46t-36 19q-83 0 -128 -193z" />
<glyph unicode="f" horiz-adv-x="397" d="M-12 -132q79 64 97 163q62 325 73 373h-21q-19 0 -37 5.5t-18 15.5v3l1 1q12 35 28 45t65 10l12 50q26 107 112.5 166.5t199.5 59.5q95 0 95 -55q0 -37 -76 -73q-27 57 -76 57q-18 0 -39.5 -13t-33.5 -30q-30 -44 -53 -162h37q20 0 59.5 3.5t56.5 3.5q1 -4 1 -12 q0 -74 -118 -74q-9 0 -27 0.5t-27 0.5q-6 -26 -21.5 -103.5t-30 -135t-34.5 -114.5q-26 -74 -80.5 -130t-127.5 -84q-8 -2 -10 -2q-18 0 -18 15q1 4 11 16z" />
<glyph unicode="g" horiz-adv-x="574" d="M526 -97q38 -25 38 -32q-2 0 -8 3t-17 9.5t-21 10.5q1 0 -14 6.5l-35.5 15t-33.5 12.5q-38 -63 -103.5 -97t-148.5 -34q-85 0 -153.5 30.5t-68.5 69.5q0 38 44.5 68.5t151.5 30.5q89 0 167 -16q27 73 59 230q-118 -168 -236 -168q-99 0 -99 138q0 90 40 174t112 137.5 t156 53.5q59 0 106 -28q30 25 69 25q37 0 80 -22q-34 -51 -70 -208q-30 -152 -54 -249q-17 -68 -42 -118q45 -18 81 -42zM286 -91q15 16 30 50q-69 15 -158 15h-7q-20 0 -31 -0.5t-27 -2.5t-23.5 -7.5t-7.5 -14.5q0 -5 3 -9q49 -69 131 -69q55 0 90 38zM225 148 q44 0 105.5 82.5t103.5 186.5q-3 19 -30.5 36t-55.5 17q-62 0 -108 -86t-46 -192q0 -44 31 -44z" />
<glyph unicode="h" horiz-adv-x="584" d="M241 313q53 96 123.5 160.5t135.5 64.5q71 0 71 -81q0 -30 -25.5 -142.5t-25.5 -171.5q0 -21 12 -43q23 8 49 35q48 50 60 50q6 0 6 -8q0 -54 -62 -118t-116 -64q-42 0 -65.5 26.5t-23.5 78.5q0 74 20 147q24 84 26 140q0 31 -16 31q-33 0 -97.5 -102t-132.5 -266 q-12 -29 -29 -41.5t-54 -12.5q-26 0 -77 8q104 272 152 648q0 2 0.5 5.5t0.5 4.5q0 20 -12 46q57 32 108 32q22 0 36 -12t14 -35q0 -6 -1 -9q-2 -26 -24.5 -138.5t-52.5 -232.5z" />
<glyph unicode="i" horiz-adv-x="296" d="M312 784q46 0 48 -26q0 -7 -1 -12q-6 -24 -40 -76q-33 -51 -45 -60.5t-56 -18.5q-28 -6 -40.5 3.5t-12.5 24.5q0 12 8.5 58t7.5 68q0 1 -5 14q64 25 136 25zM264 134q-34 -32 -49 -35q-11 20 -11 43q0 55 15 121q1 7 39 147q5 18 11 50q6 33 -12 52q-15 16 -50 16 q-43 0 -100 -21q15 -23 15 -50q0 -29 -5 -54q-23 -119 -33 -156q-26 -97 -20 -161q6 -92 89 -92q39 0 89.5 39.5t71.5 87.5q16 38 16 54q0 31 -66 -41z" />
<glyph unicode="j" horiz-adv-x="290" d="M293 411q-5 -22 -41.5 -159t-39.5 -153q-21 -95 -66 -166q86 -24 86 -29q0 -2 -8 -2q-37 0 -90 13q-84 -116 -199 -116q-37 0 -63 16.5t-26 45.5q0 47 37.5 74.5t99.5 27.5q18 0 46 -4q23 49 49 139q12 41 40.5 165t34.5 156q4 20 4 38q0 27 -15 50q57 21 100 21 q64 0 64 -52q0 -15 -13 -65zM-33 -111q24 6 51 50q-7 0 -20 1t-19 1q-37 0 -61.5 -10.5t-24.5 -22.5q0 -10 16.5 -16t36.5 -6q10 0 21 3zM347 784q22 0 35 -7.5t13 -18.5q0 -26 -41 -88q-33 -51 -45 -60.5t-56 -18.5q-14 -2 -18 -2q-18 0 -26.5 9t-8.5 21q0 13 8 57t8 66 q0 5 -5 17q64 25 136 25z" />
<glyph unicode="k" horiz-adv-x="530" d="M265 740h6q23 0 36 -13t13 -37l-3 -17q-37 -214 -79 -382q181 250 270 250q49 0 57 -98q-91 0 -204 -130q0 -1 -0.5 -5t-0.5 -6q0 -12 5 -29q11 -33 21 -56.5t25.5 -49.5t36.5 -39.5t46 -13.5q37 0 86 31l4 2q2 0 2 -4q0 -3 -2 -7q-21 -53 -70.5 -95t-95.5 -42 q-45 0 -83 50.5t-79 168.5q-20 -36 -74 -168q-11 -29 -29 -41.5t-54 -12.5q-26 0 -77 8q104 272 152 648q0 2 0.5 5.5t0.5 4.5q0 20 -12 46q51 29 102 32z" />
<glyph unicode="l" horiz-adv-x="330" d="M208 99q41 2 74 25q83 61 90 61q12 0 -31 -69q-32 -51 -93 -86.5t-102 -35.5t-65 23t-24 68q-1 21 9 84q2 8 4 26q-50 -36 -54 -36q-3 0 10.5 12.5l38.5 34.5q2 2 9 8q53 225 128 475q8 25 34 43q22 15 49 13q48 -3 85 -31q7 -7 8 -15v-2q1 -2 1.5 -5t0.5 -7t0.5 -10 t0.5 -12q0 -22 -2 -35q-6 -50 -45 -141q-36 -83 -103 -171l-1 -6q-5 -22 -7 -29q-25 -114 -25 -140q0 -24 10 -42zM288 522q-20 -60 -43 -150q43 62 70 127q38 85 43 133q2 27 1 37q0 8 -7 10t-11 -5q-5 -9 -8 -17q-25 -67 -45 -135z" />
<glyph unicode="m" horiz-adv-x="875" d="M662 83q0 19 24 134q38 170 38 187t-15 17q-22 0 -71.5 -67.5t-95.5 -159.5t-57 -154q0 -11 4 -23q-8 -7 -30.5 -14t-39.5 -7q-41 0 -70 30l26 108.5l24 100.5l17 74.5t13 62.5t4 32q0 18 -16 18q-29 -1 -129 -149q-6 -9 -12 -19.5l-11 -19t-11.5 -23l-10.5 -23 t-12.5 -28.5l-13 -30.5l-15.5 -37.5l-17 -41q-12 -30 -29 -42.5t-53 -12.5q-29 0 -78 9q54 133 83.5 259.5t29.5 185.5q0 38 -12 66q65 28 105 28q23 0 38.5 -13t15.5 -36q0 -38 -33 -166q67 104 135 161t116 57q30 0 49.5 -16.5t19.5 -48.5q0 -84 -23 -151q65 104 133 160 t115 56q29 0 48.5 -21t19.5 -51q0 -60 -31.5 -183t-31.5 -151q0 -25 10 -43q16 3 60.5 44.5t48.5 41.5q6 0 6 -9q0 -54 -62 -118t-116 -64q-87 0 -87 90z" />
<glyph unicode="n" horiz-adv-x="589" d="M418 422q-36 0 -123 -137q-24 -39 -42 -74t-29 -61.5l-40 -99.5q-11 -29 -29 -41.5t-54 -12.5q-27 0 -78 8q32 80 59 169q54 179 54 277q0 42 -11 65q62 28 105 28q21 0 37 -12t16 -36q0 -34 -36 -182q50 93 122.5 163t132.5 70q34 0 55 -20.5t21 -52.5q0 -59 -33 -194 q-30 -105 -30 -137q0 -25 10 -43q23 8 49 35q48 50 60 50q6 0 6 -8q0 -55 -62 -118.5t-115 -63.5q-41 0 -65.5 23t-24.5 69q0 24 20 114q40 174 40 200q0 22 -15 22z" />
<glyph unicode="o" horiz-adv-x="535" d="M146 434q101 112 227 112q83 0 133 -48t50 -130q0 -93 -43 -180.5t-119 -142.5t-162 -55q-83 0 -133 50t-50 136q0 144 97 258zM407 368q0 104 -64 104q-42 0 -77 -53.5t-52.5 -123t-17.5 -130.5q0 -102 66 -102q41 0 76 53t52 122t17 130z" />
<glyph unicode="p" horiz-adv-x="573" d="M513 540q40 -6 60.5 -45t20.5 -90q0 -96 -44 -190.5t-120 -156t-159 -61.5q-52 0 -94 19q-22 -86 -22 -139q0 -16 10 -50q-50 -25 -94 -25q-60 0 -60 56q0 22 6 49q23 92 101 430q21 90 21 142q0 26 -10 47q58 26 103 26q57 0 57 -46q0 -27 -34 -157q120 193 233 193 q7 0 25 -2zM447 363v12q0 61 -31 61q-37 0 -110.5 -111.5t-105.5 -201.5q4 -20 29 -34t52 -14q61 0 110.5 91.5t55.5 196.5z" />
<glyph unicode="q" horiz-adv-x="565" d="M608 519q-41 23 -79 23q-43 0 -68 -26q-49 30 -108 30q-84 0 -158 -66.5t-115 -161.5t-41 -186q0 -142 102 -142q116 0 235 193l-58 -281q-6 -30 -6 -46q0 -54 64 -54q32 0 83 20q-5 27 -5 50q0 40 11 97q22 125 96 433q21 76 47 117zM216 96q-33 0 -33 60q0 112 54 213 t109 101q32 0 57.5 -15.5t27.5 -43.5q-33 -87 -107 -201t-108 -114z" />
<glyph unicode="r" horiz-adv-x="422" d="M452 544h5q42 0 42 -48q0 -64 -69 -142q-16 25 -38 25q-19 0 -38 -11t-37.5 -37t-33.5 -49.5t-35.5 -69.5t-32.5 -75.5l-35 -86.5q-11 -29 -28.5 -42t-53.5 -13q-28 0 -78 9q53 136 82.5 260.5t29.5 184.5q0 43 -11 66q65 28 105 28q24 0 38.5 -13.5t14.5 -37.5 q0 -39 -32 -165q123 216 205 217z" />
<glyph unicode="s" horiz-adv-x="403" d="M329 498q-58 0 -58 -62q0 -26 26 -58q2 -2 12.5 -15l13 -16l12 -15t12 -16.5t10 -15.5t9.5 -17t7 -17t6.5 -19.5t3 -19t1.5 -21.5q0 -89 -69.5 -151t-161.5 -62q-56 0 -102 34t-46 89q0 43 40 65q43 -116 122 -120q36 0 56.5 20t20.5 60q0 17 -8.5 34.5t-16 27t-28.5 32 t-27 29.5q-40 48 -40 109t38 104.5t92 62t115 18.5q27 0 40 -6.5t17 -23.5q0 -32 -39 -59q-29 29 -58 29z" />
<glyph unicode="t" horiz-adv-x="358" d="M423 495v-6q0 -35 -24.5 -57.5t-59.5 -22.5q-10 0 -29 0.5t-28 0.5q-15 0 -23 -2q-18 -89 -36 -155q-16 -60 -16 -107q3 -48 39 -48q15 0 51 38q48 51 61 51q5 0 5 -9q0 -54 -61.5 -118t-115.5 -64q-116 0 -116 130q0 20 6 62q13 74 33 159q45 172 45 245q0 31 -11 55 q58 33 108 33q49 0 49 -49v-1q0 -1 -0.5 -4.5t-1.5 -8.5t-2 -12.5t-2 -16t-3 -19.5l-4 -23t-5 -27l-6 -31h52q47 0 95 7z" />
<glyph unicode="u" horiz-adv-x="589" d="M531 543q61 -4 61 -54q0 -28 -13 -75q-4 -15 -16 -56.5t-17 -61.5l-12.5 -51t-10.5 -54.5t-3 -43.5q0 -23 11 -43q16 3 60.5 44.5t48.5 41.5q6 0 6 -9q0 -54 -62 -118t-116 -64q-89 0 -89 107q0 28 9 77q-118 -193 -233 -193q-87 0 -87 103q0 39 36 190t36 188 q0 32 -10 51q54 21 98 21q58 0 58 -55q0 -16 -10 -61l-23 -98l-22 -90t-14 -65.5t-6 -50.5q0 -26 19 -26q21 0 63 47.5t82 120.5q77 140 77 230q0 20 -7 34q40 14 86 14z" />
<glyph unicode="v" horiz-adv-x="506" d="M387 331q56 99 56 168q0 14 -7 34t-16 30q18 3 37 3q55 0 79.5 -16.5t24.5 -56.5q0 -70 -105 -232q-88 -137 -156.5 -204t-146.5 -67q-14 0 -21 2q0 7 1 25t1 27q2 130 -31 322q-11 66 -20.5 97t-25.5 43q60 37 112 37q65 0 71 -91q13 -95 13 -261q0 -45 -1 -68 q74 97 135 208z" />
<glyph unicode="w" horiz-adv-x="735" d="M475 0q64 17 142 123.5t127.5 216.5t49.5 154q0 76 -115 76q-19 0 -37 -3q35 -32 35 -91q0 -67 -44 -168.5t-106 -184.5q4 84 4 219q0 110 -8.5 150.5t-45.5 40.5q-39 0 -85 -20q4 -9 4 -26q0 -148 -145 -325v47q0 123 -6 201q-5 76 -17 104.5t-50 28.5q-42 0 -101 -33 q34 -50 40 -132q9 -106 9 -251q0 -91 -6 -132q90 0 130 40q84 84 161 249q4 -126 4 -185q0 -67 -4 -105q49 2 64 6z" />
<glyph unicode="x" horiz-adv-x="488" d="M121 -10q-7 -1 -21 -1q-37 0 -61.5 15t-24.5 39q0 70 175 218l-25 70l-22.5 64t-18.5 42.5t-22 30.5q12 26 41.5 44t60.5 18q52 0 70 -77q12 -53 34 -120q131 135 131 205q0 6 41 6q60 0 60 -40q0 -37 -51 -97.5t-149 -152.5q27 -74 65 -129.5t72 -73.5q-54 -59 -116 -59 q-35 0 -68 47t-70 140q-47 -42 -76 -87.5t-29 -80.5q0 -12 4 -21z" />
<glyph unicode="y" horiz-adv-x="510" d="M-76 -163q-1 3 -1 11q0 27 18 65q18 -16 50 -16q87 0 169 117q9 13 9 46q0 20 -4 50q-44 353 -99 396q62 37 113 37q58 0 70 -82q23 -157 35 -325q77 109 123 202t46 145q0 14 -7 34t-16 30q18 3 37 3q105 0 105 -68q0 -47 -71.5 -168t-191.5 -279q-104 -138 -176.5 -192 t-132.5 -54q-67 0 -76 48z" />
<glyph unicode="z" horiz-adv-x="455" d="M541 -5q-31 -30 -75 -30q-72 0 -143 49q-96 66 -164 67q22 30 80.5 90.5t76.5 80.5l169 194q24 28 24 65q0 13 -3 25q-90 -18 -177 -18q-119 0 -169 30q-46 -60 -46 -92q0 -23 23 -37t71 -14q46 0 108 5l-79 -97.5l-67 -79l-69.5 -77t-50.5 -55.5q-33 -36 -33 -85 q0 -17 5 -35q32 5 58 5q61 0 120 -25q28 -12 71 -44t82 -54.5t74 -22.5q49 0 84.5 34.5t35.5 84.5q0 18 -6 36z" />
<glyph unicode="{" horiz-adv-x="351" d="M106 26q1 52 23 120q20 68 20 105q0 38 -31 60q-39 25 -31 72q21 -5 39 1q57 15 89 163q11 47 24 90q41 137 153 147q48 4 76 -9.5t30 -40.5q-42 4 -76.5 -18.5t-47.5 -63.5q-24 -67 -38 -137q-3 -16 -11 -44q-20 -52 -52.5 -79t-79.5 -39q-9 -2 -25 -8l30 -12 q74 -29 74 -102q0 -26 -8 -66q-2 -8 -5.5 -24.5l-5.5 -25.5q-10 -44 -10 -78q0 -37 13.5 -53.5t45.5 -16.5q15 0 35 5q-4 -30 -32 -46t-69 -16q-27 0 -47 5q-83 24 -83 111z" />
<glyph unicode="|" horiz-adv-x="289" d="M337 741q-12 -58 -25 -111l-136 -564q-19 -83 -23 -110q-3 -15 -3 -32q-18 -5 -32 -5q-18 0 -66 11q-4 10 -4 19v5q3 15 18 80l129 545q18 71 28 136q7 34 8 54q3 0 7 0.5t7 0.5q44 0 92 -29z" />
<glyph unicode="}" horiz-adv-x="351" d="M221 26q19 43 30 120q10 73 26 105q14 36 57 60q23 11 40.5 31t21.5 41q-23 -5 -38 1q-32 9 -32 64q0 38 15 99q2 9 16 90q2 12 2 34q0 105 -92 113q-47 4 -80.5 -9.5t-47.5 -40.5q43 4 68 -18.5t21 -63.5q-6 -63 -23 -137q-5 -22 -7 -44q-4 -52 17 -79t63 -39 q8 -2 22 -8l-37 -12q-88 -29 -117 -102q-10 -21 -23 -66q0 -3 -4 -22t-5 -28q-12 -47 -26 -78q-16 -37 -36.5 -53.5t-52.5 -16.5q-15 0 -33 5q-9 -30 12 -46t62 -16q28 0 49 5q95 24 132 111z" />
<glyph unicode="~" horiz-adv-x="580" d="M122 251q-24 0 -39 15q-17 15 -17 38q0 50 41 85t119 35q35 0 120 -41t101 -41q30 0 51 21t22 51q59 -4 59 -46q0 -62 -45.5 -100t-115.5 -28q-32 4 -118 43.5t-103 39.5q-30 0 -51.5 -21t-23.5 -51z" />
<glyph unicode="&#xa1;" horiz-adv-x="339" d="M46 -187q0 28 14 80l26.5 105.5l23 90l17.5 71.5l14 59l9.5 41.5t6.5 32t2 18.5q0 13 -3 25q22 2 32 2q77 0 83 -43q0 -34 -7 -69q-61 -287 -67 -372q-3 -38 6 -77q-58 -21 -92 -21q-65 0 -65 57zM171 465q0 11 13 58q41 28 88 28q26 0 39.5 -12.5t13.5 -32.5 q0 -16 -5 -37t-5 -27q0 -8 1 -13q-44 -21 -78 -21q-32 0 -49.5 15t-17.5 42z" />
<glyph unicode="&#xa2;" horiz-adv-x="454" d="M521 484q0 -33 -25.5 -56.5t-59.5 -23.5q2 23 -13 43t-38 23l-76 -396q43 5 87.5 30.5t71.5 50.5q4 -12 4 -28q0 -17 -6 -32q-28 -75 -172 -100q-10 -49 -12 -78q0 -4 -0.5 -11.5t-0.5 -11.5q-8 -1 -22 -1q-22 0 -37 8q-13 9 -10 30q0 1 5.5 23t7.5 36q-96 6 -141 56 q-45 51 -37 147q10 115 78 211q80 110 206 137q9 44 10 68q1 4 1 12.5t1 12.5q5 0 12 0.5t10 0.5q49 0 49 -20q0 -5 -14 -68q121 -5 121 -63zM244 83l74 387q-50 -22 -83.5 -80.5t-43.5 -142.5q-2 -12 -2 -37q0 -46 14 -81t41 -46z" />
<glyph unicode="&#xa3;" horiz-adv-x="608" d="M557 450q-7 -41 -41.5 -61t-106.5 -20q-9 0 -22.5 0.5t-18.5 0.5q-28 -112 -65 -172.5t-114 -104.5q27 1 69 4t71 4.5t52 1.5h58q76 6 99 31q24 -6 24 -34q0 -42 -24 -80t-60 -38q-14 0 -111.5 9.5t-157.5 9.5q-31 -2 -79.5 -8t-59.5 -6q-35 0 -35 28q0 29 11 60 q0 1 23 14q79 37 108 90t46 191h-32q-48 0 -84 -11q8 38 17.5 53t28.5 20q27 8 79 8q19 166 102 256t215 90q111 0 111 -66q0 -17 -14.5 -42t-36.5 -42q-12 21 -19 31t-27.5 21t-49.5 11q-25 0 -44.5 -8t-33 -28t-22 -37.5t-15.5 -54.5t-10 -60l-9 -71h36q76 0 142 10z" />
<glyph unicode="&#xa5;" horiz-adv-x="609" d="M709 751q0 -43 -45 -105.5t-125.5 -146t-95.5 -101.5q127 2 168 10q-11 -41 -23.5 -55.5t-35.5 -16.5q-56 -2 -153 -4q-22 -42 -37 -97q143 2 166 9q-11 -37 -22 -50t-31 -15q-13 -1 -127 -3q-12 -64 -12 -108q0 -24 11 -55q-50 -25 -105 -25q-63 0 -63 46q0 39 51 143 q-65 0 -99 -9q7 45 19 58t45 13q29 0 63 -2q26 58 23 87q0 6 -1 10h-35q-102 0 -138 -10q8 50 22 64t51 14q21 0 90 -3q-21 122 -62.5 210.5t-78.5 105.5q-5 2 -13 5.5t-12 5.5q66 63 131 63q60 0 84 -59q10 -24 20 -61t16 -65l17.5 -85l16.5 -83l76.5 121l49.5 76.5 l26.5 42.5t22.5 43q12 24 12 60q0 19 -3 35q10 1 29 1q52 0 79.5 -17.5t27.5 -46.5z" />
<glyph unicode="&#xa6;" horiz-adv-x="289" d="M339 744q-12 -67 -38 -162q-25 -98 -31 -144q-1 -5 -1 -17v-8q-15 -3 -29 -3q-38 0 -76 25q0 1 1 4t2 4q8 52 31 141q19 70 37 168q0 10 -2 17q16 2 24 2q40 0 82 -27zM223 258q-4 -33 -34 -146q-29 -115 -35 -159q-1 -8 -1 -26q-15 -3 -28 -3q-39 0 -77 25q21 96 34 148 q19 69 37 169q0 10 -2 16q9 2 26 2q39 0 80 -26z" />
<glyph unicode="&#xa7;" horiz-adv-x="587" d="M587 716q0 -42 -55 -84q-22 31 -33 43.5t-33.5 24.5t-51.5 12q-42 0 -64.5 -21t-22.5 -61q0 -33 24.5 -54t123.5 -81q77 -53 77 -127q0 -118 -132 -175q37 -42 37 -103q0 -83 -73 -134.5t-170 -51.5q-150 0 -154 79q0 23 14.5 47.5t36.5 39.5q51 -90 130 -90 q47 0 71.5 22t24.5 63q0 12 -2.5 21.5t-10.5 19.5t-14.5 17t-24 18.5l-28.5 18.5l-38 23.5l-44 27.5q-68 50 -68 121q0 117 138 173q-35 41 -35 99q0 82 70.5 132t165.5 50q61 0 100.5 -17t40.5 -53zM437 334q-1 38 -43 69t-99 50q-32 -11 -51 -34.5t-19 -52.5 q0 -39 40.5 -70t102.5 -51q69 29 69 89z" />
<glyph unicode="&#xa8;" horiz-adv-x="439" d="M385 672q0 -46 52 -46q39 0 80 24q17 43 17 66q0 24 -16.5 37.5t-45.5 13.5q-33 0 -75 -21q0 -6 -6 -29t-6 -45zM169 672q0 -46 52 -46q39 0 80 24q17 43 17 66q0 24 -16.5 37.5t-45.5 13.5q-33 0 -75 -21q0 -6 -6 -29t-6 -45z" />
<glyph unicode="&#xa9;" horiz-adv-x="887" d="M764 518q0 -149 -83.5 -245t-228.5 -96q-118 0 -182.5 61t-64.5 180q0 152 84.5 245t226.5 93q117 0 182.5 -61t65.5 -177zM692 511q0 89 -50 136t-143 47q-104 0 -162.5 -78t-58.5 -192q0 -91 47 -139t136 -48q108 0 169.5 77t61.5 197zM586 405q12 -9 13 -26.5 t-7 -28.5q-17 -24 -49 -44t-72 -20q-135 0 -135 139q0 90 57 156t139 66q43 0 66.5 -15.5t23.5 -40.5q0 -23 -15 -38q-21 -19 -49 -13q-5 46 -40 46q-38 0 -62.5 -47t-24.5 -116q0 -70 60 -70q48 0 95 52z" />
<glyph unicode="&#xaa;" horiz-adv-x="498" d="M428 547q0 -29 54 -46q-9 -31 -34.5 -50t-57.5 -19q-42 0 -55 24t-13 80q-79 -108 -151 -108q-38 0 -58 25t-20 69q0 95 68.5 162.5t144.5 69.5q35 0 67 -19q21 18 49 18q33 0 67 -23q-21 -28 -41 -86.5t-20 -96.5zM220 503q28 0 68 47.5t64 114.5q-10 30 -44 30 q-36 0 -70.5 -50.5t-34.5 -102.5q0 -39 17 -39z" />
<glyph unicode="&#xab;" horiz-adv-x="530" d="M549 479q5 -3 8.5 -12t2.5 -13q-9 -45 -59 -94t-129 -93q119 -89 107 -175q-2 -15 -11 -24q-26 27 -75.5 69t-90.5 70l-10 6.5t-9.5 6.5t-8 6t-8 7.5t-6 9t-5.5 11t-3 13t-1 16.5q9 8 27 17q57 23 124 66.5t121 91.5q6 6 26 21zM160 267q119 -89 107 -175q-4 -17 -11 -24 q-26 28 -76 69.5t-91 69.5q-2 1 -11 7t-11 7.5t-8.5 7t-8.5 9.5l-5.5 11t-4.5 15.5t-1 18.5q11 10 27 17q56 23 118.5 62t109.5 80q10 9 21 16q11 -9 11 -23q-12 -79 -166 -168z" />
<glyph unicode="&#xac;" horiz-adv-x="541" d="M532 310q-8 -46 -23 -92.5t-25 -57.5q-22 -28 -63 -28h-30h-16q27 52 33 98q3 7 3 21q0 18 -7 23q-42 4 -221 12q-52 4 -78 23q-18 13 -9 43q1 3 4.5 15t5.5 20q9 4 18 4t24 -3q70 -4 123 -4q107 0 173 -6q25 -1 38 -3t29 -10.5t20 -24.5q3 -9 1 -30z" />
<glyph unicode="&#xae;" horiz-adv-x="875" d="M524 457q13 -30 39 -66.5t49 -47.5q-7 -16 -25.5 -28t-38.5 -12q-26 0 -45 29q-37 52 -55 104q-7 -48 -7 -89q0 -4 1 -12.5t1 -13.5q0 -9 -24 -14.5t-33 -5.5q-15 0 -23.5 6.5t-7.5 19.5q31 174 31 253q0 13 -8 31q59 26 114 26q115 0 115 -77q0 -68 -83 -103zM455 491 q68 3 68 59q0 36 -35 36q-12 0 -18 -2q-6 -42 -7 -50q-1 -7 -4 -21.5t-4 -21.5zM514 756q117 0 182.5 -61t65.5 -177q0 -151 -83 -246t-229 -95q-117 0 -181 61t-64 180q0 152 83.5 245t225.5 93zM460 237q108 0 169.5 76.5t61.5 197.5q0 89 -50 136t-143 47 q-104 0 -162.5 -78t-58.5 -192q0 -91 47 -139t136 -48z" />
<glyph unicode="&#xaf;" horiz-adv-x="500" d="M510 724q-1 -43 -14.5 -63.5t-42.5 -26.5q-29 -3 -55 -3q-33 0 -81 2q-47 2 -122 11q-1 6 -1 18v7q2 29 14 51q18 0 30 -1q24 0 90 -2q81 -3 82 -3q65 0 100 10z" />
<glyph unicode="&#xb0;" horiz-adv-x="373" d="M305 766q53 -5 83.5 -29t31.5 -66q0 -65 -54 -108.5t-123 -43.5q-51 0 -82 24t-31 70q0 67 50.5 110t124.5 43zM262 587q34 0 54.5 22t20.5 52q0 20 -17 34t-42 7q-26 -9 -42.5 -34t-16.5 -48q0 -33 43 -33z" />
<glyph unicode="&#xb1;" horiz-adv-x="541" d="M539 414q-17 -80 -41 -92q-42 -17 -141 -17q-21 -81 -21 -136q0 -16 1 -23q-27 -5 -45 -5q-30 0 -43 7t-13 24q0 36 28 134h-23q-85 0 -136 -16q14 75 38 91q25 17 141 17q21 82 21 138q0 13 -1 19q30 6 52 6q49 0 49 -31q0 -18 -28 -132h17q94 0 145 16zM485 111 q-10 -71 -40.5 -90.5t-98.5 -19.5h-39h-137q-93 0 -135 -12q13 71 42 89.5t103 18.5h50h83q118 0 172 14z" />
<glyph unicode="&#xb2;" horiz-adv-x="446" d="M393 433q15 0 15 -26q0 -39 -13 -57t-50 -18q-11 0 -48 1.5t-59 1.5q-21 0 -53 -2t-40 -2h-1q-16 0 -22 5v1q-4 4 -7 14t-3 17l-1 8q0 11 4 17l2 2q113 94 156 150q70 90 70 138q0 14 -11.5 24.5t-27.5 10.5q-44 0 -71 -39v-1l-2 -2q-16 -13 -22 -15l-7 -2l-4 7 q-14 22 -14 42q0 38 44.5 61t102.5 23q54 0 84.5 -25.5t30.5 -71.5q0 -77 -110 -194q-79 -79 -86 -85q11 -1 29 -1q41 0 77 9t37 9z" />
<glyph unicode="&#xb3;" horiz-adv-x="430" d="M210 321q80 0 137.5 48t57.5 116q0 67 -60 90q46 26 67 53.5t21 65.5q0 92 -122 92q-56 0 -90 -20t-34 -52q0 -15 22 -41l12 -15l7 14q21 44 70 44q38 0 38 -38q0 -47 -96 -80l-3 -1q-63 -17 -63 -50q0 -13 6 -26l3 -8l8 2q29 8 68 8q20 0 32 -16t12 -36q0 -35 -25.5 -58 t-63.5 -23q-42 0 -73 39l-9 12l-8 -13q-17 -29 -17 -56q0 -51 103 -51z" />
<glyph unicode="&#xb4;" horiz-adv-x="439" d="M218 630q0 -9 14.5 -14t27.5 -3q95 17 170 59q62 29 62 61q0 23 -29 37t-84 14q-66 -87 -154 -144q-7 -4 -7 -10z" />
<glyph unicode="&#xb5;" horiz-adv-x="589" d="M176 -8q-12 -51 -21 -110q-2 -12 -2 -31q2 -30 16 -44q-56 -32 -100 -32q-32 0 -46.5 15t-14.5 47q0 7 2 21q6 38 24 116l19 82q4 15 15.5 68l24.5 111t15 66q32 138 32 170t-10 52q54 21 98 21q58 0 58 -56q0 -15 -10 -60l-29.5 -122.5t-27.5 -120t-8 -61.5 q0 -27 19 -27q21 0 63 47.5t82 120.5q77 142 77 230q0 21 -7 35q45 14 86 14q61 -6 61 -55q0 -29 -13 -74q-34 -119 -40 -144q-19 -79 -19 -123q0 -22 11 -44q10 3 25 16q42 33 48 33q3 0 3 -8q0 -24 -25.5 -63t-56.5 -62q-27 -21 -57 -21q-89 0 -89 108q0 27 9 77 q-109 -176 -212 -192z" />
<glyph unicode="&#xb6;" horiz-adv-x="596" d="M563 685q-64 -257 -109 -514q-30 -177 -30 -219q0 -12 -25 -23t-50 -16l-25 -5q-31 -5 -52 13q-25 20 -25 48q0 31 24 168l22 112q9 43 11 54q2 10 7 30t7 30q-20 -17 -41 -28q-22 -11 -46 -11q-115 0 -115 154q0 127 102.5 212.5t262.5 85.5q87 0 137 -19t50 -43 q0 -27 -43 -61q-20 24 -62 32zM279 405q16 -3 33.5 26t36.5 83q29 87 50 183q-69 -3 -118.5 -72.5t-49.5 -148.5q0 -64 48 -71zM360 -34q-2 9 0 17q18 132 64 353q22 108 81 360q-3 0 -9.5 1t-10.5 1h-6q-6 1 -12 1l-52 -207q-89 -330 -103 -501q0 -2 -0.5 -7.5t0 -9t1 -8 t3.5 -6.5t8 -2q10 0 36 8z" />
<glyph unicode="&#xb7;" horiz-adv-x="304" d="M270 302q0 -27 -18 -73q-41 -22 -80 -22q-51 0 -56 40v15q11 62 11 63q0 8 -1 12q42 22 78 22q31 0 48.5 -15t17.5 -42z" />
<glyph unicode="&#xb8;" horiz-adv-x="500" d="M296 -95q0 -38 -43 -64t-117 -26q-63 0 -63 27q0 10 6 24q24 -6 45 -6q34 0 58.5 8.5t24.5 22.5q0 4 -0.5 7.5t-1.5 6t-3 5t-3.5 4t-5.5 3t-5.5 2.5t-7 2.5t-7.5 2t-8.5 2t-9.5 2.5q-5 24 12 42q16 19 40 19q9 0 11 -1q-9 -18 -9 -24q87 -15 87 -59z" />
<glyph unicode="&#xb9;" horiz-adv-x="433" d="M337 330q-20 9 -48 7h-56q-7 1 -25 0t-25 -1q-50 0 -53 35v1q0 22 12 40l3 5l7 -1q5 0 18.5 -2.5t19.5 -2.5q14 0 17 5q2 3 3 9q0 1 30 128t35 150q-9 -2 -23.5 -6t-25 -6.5t-16.5 -2.5q-25 0 -25 33q0 27 9 46l2 7h7q100 0 150 18l6 3l5 -6q18 -21 18 -40q0 -8 -3 -17 l-75 -322q2 0 5.5 0.5t6.5 0.5q22 0 35.5 -11t13.5 -28q0 -12 -15 -39l-5 -8z" />
<glyph unicode="&#xba;" horiz-adv-x="498" d="M362 760q60 0 94.5 -27.5t34.5 -84.5q0 -87 -72 -156q-61 -60 -153 -60q-66 0 -100.5 30t-34.5 85q0 68 38 118.5t89 72.5t104 22zM285 489q51 0 73 47.5t22 109.5q0 59 -46 59q-39 0 -64 -39t-30 -102q0 -75 45 -75z" />
<glyph unicode="&#xbb;" horiz-adv-x="530" d="M51 69q-5 3 -8.5 12t-2.5 13q9 45 59 94t129 93q-119 89 -107 175q2 15 11 24q26 -27 75.5 -69t90.5 -70l10 -6.5t9.5 -6.5t8 -6t8 -7.5t6 -9t5.5 -11t3 -13t1 -16.5q-9 -8 -27 -17q-57 -23 -124 -66.5t-121 -91.5q-6 -6 -26 -21zM440 281q-119 89 -107 175q4 17 11 24 q26 -28 76 -69.5t91 -69.5q2 -1 11 -7t11 -7.5t8.5 -7t8.5 -9.5l5.5 -11t4.5 -15.5t1 -18.5q-11 -10 -27 -17q-56 -23 -118.5 -62t-109.5 -80q-10 -9 -21 -16q-11 9 -11 23q12 79 166 168z" />
<glyph unicode="&#xbc;" horiz-adv-x="881" d="M817 201q28 1 28 -25q0 -10 -9 -27.5t-19 -28.5l-4 -5l-6 2q-18 5 -40 7l-1 -4q-12 -56 -12 -74q0 -13 5 -23l4 -9l-9 -4q-31 -14 -55 -14q-42 0 -42 37q0 14 17 92q-32 0 -80 -3.5t-53 -3.5q-28 0 -28 43q0 46 127 178q80 84 142 120l5 1q22 0 35 -8.5t13 -20.5 q0 -5 -9 -56v-1q-13 -60 -43 -175q11 0 20.5 1t13.5 1zM694 197q6 29 22 84t20 73q-109 -86 -161 -162q16 1 59.5 2.5t59.5 2.5zM266 330q-17 7 -40 7h-8h-56h-8q-5 0 -19.5 -0.5t-22.5 -0.5q-22 0 -36.5 9.5t-15.5 25.5v1q0 24 11 40l3 5l7 -1q8 0 25.5 -2.5t20.5 -2.5 q9 0 13 14q4 21 32 140.5l32 137.5q-8 -2 -22.5 -6t-25 -6.5t-16.5 -2.5q-25 0 -25 33q0 29 8 46l3 7h7q99 0 150 18l5 3l6 -6q18 -23 18 -40q0 -9 -4 -17q-2 -11 -37 -160t-37 -162q2 0 5.5 0.5t5.5 0.5q22 0 35.5 -11t13.5 -28q0 -14 -14 -39l-6 -8zM848 772 q-73 -51 -288 -335q-191 -253 -269 -387q-29 -51 -46 -63q-59 11 -71 36q3 12 15.5 34.5t38 60.5l51 74.5l72 100l83.5 113.5l102 138l112 151q37 45 64.5 64.5t63.5 19.5q41 0 72 -7z" />
<glyph unicode="&#xbd;" horiz-adv-x="875" d="M849 772q-77 -54 -288 -335q-190 -250 -270 -387q-29 -51 -45 -63q-58 11 -72 36q14 49 204 309q9 13 134.5 181l136.5 182q36 45 63.5 64.5t63.5 19.5q41 0 73 -7zM267 330q-20 9 -48 7h-56q-7 1 -25 0t-25 -1q-50 0 -53 35v1q0 22 12 40l3 5l7 -1q5 0 18.5 -2.5 t19.5 -2.5q14 0 17 5q2 3 3 9q0 1 30 128t35 150q-9 -2 -23.5 -6t-25 -6.5t-16.5 -2.5q-25 0 -25 33q0 27 9 46l2 7h7q100 0 150 18l6 3l5 -6q18 -21 18 -40q0 -8 -3 -17l-75 -322q2 0 5.5 0.5t6.5 0.5q22 0 35.5 -11t13.5 -28q0 -12 -15 -39l-5 -8zM802 101q15 0 15 -26 q0 -39 -13 -57t-50 -18q-10 0 -47 1.5t-60 1.5q-21 0 -53 -2t-40 -2h-1q-16 0 -22 5v1q-4 4 -7 14t-4 17v8q0 11 4 17l2 2q113 94 156 150q70 90 70 138q0 14 -11.5 24.5t-27.5 10.5q-44 0 -71 -39v-1l-2 -2q-16 -13 -22 -15l-7 -2l-4 7q-14 22 -14 42q0 38 44.5 61 t102.5 23q54 0 84.5 -25.5t30.5 -71.5q0 -77 -110 -194q-79 -79 -86 -85q11 -1 29 -1q41 0 77 9t37 9z" />
<glyph unicode="&#xbe;" horiz-adv-x="885" d="M817 201q28 1 28 -25q0 -10 -9 -27.5t-19 -28.5l-4 -5l-6 2q-18 5 -40 7l-1 -4q-12 -56 -12 -74q0 -13 5 -23l4 -9l-9 -4q-31 -14 -55 -14q-42 0 -42 37q0 14 17 92q-32 0 -80 -3.5t-53 -3.5q-28 0 -28 43q0 46 127 178q80 84 142 120l5 1q22 0 35 -8.5t13 -20.5 q0 -5 -9 -56v-1q-13 -60 -43 -175q11 0 20.5 1t13.5 1zM694 197q6 29 22 84t20 73q-109 -86 -161 -162q16 1 59.5 2.5t59.5 2.5zM848 772q-73 -51 -288 -335q-191 -253 -269 -387q-29 -51 -46 -63q-59 11 -71 36q3 12 15.5 34.5t38 60.5l51 74.5l72 100l83.5 113.5l102 138 l112 151q37 45 64.5 64.5t63.5 19.5q41 0 72 -7zM160 321q80 0 137.5 48t57.5 116q0 67 -60 90q46 26 67 53.5t21 65.5q0 92 -122 92q-56 0 -90 -20t-34 -52q0 -15 22 -41l12 -15l7 14q21 44 70 44q38 0 38 -38q0 -47 -96 -80l-3 -1q-63 -17 -63 -50q0 -13 6 -26l3 -8l8 2 q29 8 68 8q20 0 32 -16t12 -36q0 -35 -25.5 -58t-63.5 -23q-42 0 -73 39l-9 12l-8 -13q-17 -29 -17 -56q0 -51 103 -51z" />
<glyph unicode="&#xbf;" horiz-adv-x="507" d="M223 -251q-91 0 -142 40.5t-51 125.5q0 80 64 147q26 24 86 67.5t93 76.5t33 65q0 26 -15 56q47 32 90 32q27 0 43.5 -23.5t16.5 -46.5q0 -54 -41 -90q-9 -8 -41 -31t-60 -45.5t-58.5 -53.5t-48.5 -67.5t-18 -74.5q0 -43 25 -65.5t66 -22.5q37 0 66.5 23t42.5 58 q12 16 25 19q44 -32 44 -66q0 -56 -69 -90t-151 -34zM380 415q-64 0 -64 55q0 7 12 55q40 27 85 27q50 0 50 -43q0 -16 -4.5 -35.5t-4.5 -25.5q0 -8 1 -13q-43 -20 -75 -20z" />
<glyph unicode="&#xc0;" horiz-adv-x="644" d="M544 847q0 -9 -15 -14t-28 -3q-90 18 -156.5 54t-66.5 66q0 21 38 40.5t80 13.5l14.5 -22t16 -23.5t15.5 -20t20 -23t21 -19.5l24.5 -17.5t27 -20t9.5 -11.5zM124 3q-46 -17 -93 -17q-51 0 -51 35q0 21 16 52q77 141 265 455q115 194 130 222q56 42 125 34q42 -4 45 -71 q0 -51 1 -83q0 -18 1.5 -47.5t1.5 -40.5q2 -21 8 -136.5t6 -118.5q6 -99 21 -167q15 -72 47 -101q-56 -39 -124 -33q-54 5 -67 98q-2 15 -16 164q-18 -14 -46 -14q-82 -3 -162 -3q-31 -16 -47 -46q-11 -16 -42 -80q-27 -67 -19 -102zM412 316q1 0 25 3q-2 166 -14 322 l-175 -325h164z" />
<glyph unicode="&#xc1;" horiz-adv-x="644" d="M124 3q-46 -17 -93 -17q-51 0 -51 35q0 21 16 52q77 141 265 455q115 194 130 222q56 42 125 34q42 -4 45 -71q0 -51 1 -83q0 -18 1.5 -47.5t1.5 -40.5q2 -21 8 -136.5t6 -118.5q6 -99 21 -167q15 -72 47 -101q-56 -39 -124 -33q-54 5 -67 98q-2 15 -16 164 q-18 -14 -46 -14q-82 -3 -162 -3q-31 -16 -47 -46q-11 -16 -42 -80q-27 -67 -19 -102zM412 316q1 0 25 3q-2 166 -14 322l-175 -325h164zM399 846q0 -9 14.5 -14t27.5 -3q95 17 170 59q62 29 62 61q0 23 -29 37t-84 14q-66 -87 -154 -144q-7 -4 -7 -10z" />
<glyph unicode="&#xc2;" horiz-adv-x="644" d="M124 3q-46 -17 -93 -17q-51 0 -51 35q0 21 16 52q77 141 265 455q115 194 130 222q56 42 125 34q42 -4 45 -71q0 -51 1 -83q0 -18 1.5 -47.5t1.5 -40.5q2 -21 8 -136.5t6 -118.5q6 -99 21 -167q15 -72 47 -101q-56 -39 -124 -33q-54 5 -67 98q-2 15 -16 164 q-18 -14 -46 -14q-82 -3 -162 -3q-31 -16 -47 -46q-11 -16 -42 -80q-27 -67 -19 -102zM412 316q1 0 25 3q-2 166 -14 322l-175 -325h164z" />
<glyph unicode="&#xc3;" horiz-adv-x="644" d="M124 3q-46 -17 -93 -17q-51 0 -51 35q0 21 16 52q77 141 265 455q115 194 130 222q56 42 125 34q42 -4 45 -71q0 -51 1 -83q0 -18 1.5 -47.5t1.5 -40.5q2 -21 8 -136.5t6 -118.5q6 -99 21 -167q15 -72 47 -101q-56 -39 -124 -33q-54 5 -67 98q-2 15 -16 164 q-18 -14 -46 -14q-82 -3 -162 -3q-31 -16 -47 -46q-11 -16 -42 -80q-27 -67 -19 -102zM412 316q1 0 25 3q-2 166 -14 322l-175 -325h164zM704 972q-8 -55 -42 -91q-32 -37 -77 -37q-37 0 -112 41q-66 37 -94 37q-8 0 -13 -2q-31 -9 -44 -62q-1 -3 -3.5 -8.5t-3.5 -8.5 q-1 -1 -3 -1q-11 0 -21 8q-11 9 -11 17q0 5 1.5 15t1.5 12q11 49 40 81q31 32 73 32q35 1 114 -40q70 -36 97 -36q3 0 11 2q32 8 45 65q4 10 5 15q1 1 3 1q4 0 11 -3q22 -10 22 -37z" />
<glyph unicode="&#xc4;" horiz-adv-x="644" d="M525 881q0 -46 52 -46q39 0 80 24q17 43 17 66q0 24 -16.5 37.5t-45.5 13.5q-33 0 -75 -21q0 -6 -6 -29t-6 -45zM309 881q0 -46 52 -46q39 0 80 24q17 43 17 66q0 24 -16.5 37.5t-45.5 13.5q-33 0 -75 -21q0 -6 -6 -29t-6 -45zM124 3q-46 -17 -93 -17q-51 0 -51 35 q0 21 16 52q77 141 265 455q115 194 130 222q56 42 125 34q42 -4 45 -71q0 -51 1 -83q0 -18 1.5 -47.5t1.5 -40.5q2 -21 8 -136.5t6 -118.5q6 -99 21 -167q15 -72 47 -101q-56 -39 -124 -33q-54 5 -67 98q-2 15 -16 164q-18 -14 -46 -14q-82 -3 -162 -3q-31 -16 -47 -46 q-11 -16 -42 -80q-27 -67 -19 -102zM412 316q1 0 25 3q-2 166 -14 322l-175 -325h164z" />
<glyph unicode="&#xc5;" horiz-adv-x="644" d="M600 119q16 -72 47 -101q-55 -38 -124 -32q-54 5 -67 98q-2 14 -16 164q-16 -14 -46 -14q-55 -3 -162 -3q-30 -16 -47 -46q-11 -16 -42 -80q-27 -67 -19 -102q-42 -17 -93 -17t-51 35q0 21 16 52q63 115 265 455l130 221q-34 32 -23 82q11 46 54.5 78.5t94.5 32.5 t80 -32.5t18 -78.5q-11 -48 -60 -81q6 -22 6 -37q0 -51 1 -83q0 -19 1.5 -48t1.5 -40q2 -21 8 -135t6 -120q6 -101 21 -168zM440 833q-4 -21 7.5 -35t33.5 -14q21 0 39.5 14t22.5 35q5 19 -7 32.5t-33 13.5q-22 0 -40 -13.5t-23 -32.5zM412 315q6 0 14.5 2t10.5 2 q-2 166 -14 322l-175 -326h164z" />
<glyph unicode="&#xc6;" horiz-adv-x="884" d="M872 774q53 0 71 -18q-3 -40 -21.5 -72t-49.5 -32q-1 0 -27.5 12.5t-58.5 12.5h-37q-15 0 -40 1t-35 1h-44q17 -18 14 -39q-23 -165 -29 -199h59q86 0 176 15q0 -1 0.5 -3t0.5 -4q0 -33 -12 -54.5t-36 -31.5t-49 -13.5t-62 -3.5q-13 0 -41 0.5t-42 0.5q-6 0 -18 -84.5 t-12 -110.5q0 -38 23.5 -49.5t62.5 -11.5q49 0 94 10.5t73.5 21.5t36.5 11q1 -5 1 -15q0 -31 -9.5 -53.5t-32 -36.5t-45 -22.5t-63.5 -12t-72 -4.5t-85 -1h-40q-51 0 -74.5 12t-23.5 50q0 36 4.5 71t13 79l10.5 54q-21 -14 -50 -14q-75 -4 -165 -4q-51 -37 -91 -95t-40 -115 q0 -7 2 -21q-46 -17 -93 -17q-21 0 -37.5 10t-16.5 33q0 27 50 96q16 23 239 307.5l247 314.5q53 35 112 35q37 0 46 -18q128 7 216 7zM463 327l45 312l-234 -315q106 0 189 3z" />
<glyph unicode="&#xc7;" horiz-adv-x="631" d="M402 -123q0 -38 -43 -64t-117 -26q-63 0 -63 27q0 10 6 24q24 -6 45 -6q34 0 58.5 8.5t24.5 22.5q0 4 -0.5 7.5t-1.5 6t-3 5t-3.5 4t-5.5 3t-5.5 2.5t-7 2.5t-7.5 2t-8.5 2t-9.5 2.5q-5 24 12 42q16 19 40 19q9 0 11 -1q-9 -18 -9 -24q87 -15 87 -59zM694 686 q0 -63 -94 -104q-15 63 -44.5 93t-83.5 30q-57 0 -104.5 -44.5t-76.5 -112t-44.5 -142.5t-15.5 -142q0 -186 143 -186q50 0 108 29t108 76q14 -39 14 -54q0 -55 -95 -103t-202 -48q-122 0 -179 69.5t-57 205.5q0 134 59.5 257t165 200t228.5 77q76 0 123 -25t47 -76z" />
<glyph unicode="&#xc8;" horiz-adv-x="577" d="M208 758q126 12 254 12q22 0 57 2t48 2q52 0 69 -18q-6 -41 -27 -72.5t-52 -31.5q-1 0 -26.5 12.5t-57.5 12.5h-37q-15 0 -40 1t-35 1h-44q12 -13 12 -30q0 -11 -2 -16q-24 -112 -43 -192h59q85 0 177 15q0 -10 -3 -24q-6 -23 -18 -39.5t-25 -25t-34 -13.5t-38.5 -6 t-46.5 -1h-60h-30q-36 -113 -36 -182q0 -12 2 -22t5 -17t9.5 -12.5t10.5 -9.5t13 -6.5t13.5 -4t15.5 -2t14 -0.5h15h13q60 0 131 21.5t74 21.5q0 -45 -17 -74.5t-53 -43.5t-76 -18.5t-103 -4.5q-24 0 -70 0.5t-69 0.5q-51 0 -68 22t-17 68q0 49 22 137q5 21 17.5 68l18 66.5 t15 58l14 57.5t10.5 48t9 47t5 38t2 35q-1 32 -5 31q-13 -3 -32 -3q-4 1 -3 17q0 14 6 28q13 27 23.5 35.5t33.5 10.5zM475 847q0 -9 -15 -14t-28 -3q-90 18 -156.5 54t-66.5 66q0 21 38 40.5t80 13.5l14.5 -22t16 -23.5t15.5 -20t20 -23t21 -19.5l24.5 -17.5t27 -20 t9.5 -11.5z" />
<glyph unicode="&#xc9;" horiz-adv-x="577" d="M208 758q126 12 254 12q22 0 57 2t48 2q52 0 69 -18q-6 -41 -27 -72.5t-52 -31.5q-1 0 -26.5 12.5t-57.5 12.5h-37q-15 0 -40 1t-35 1h-44q12 -13 12 -30q0 -11 -2 -16q-24 -112 -43 -192h59q85 0 177 15q0 -10 -3 -24q-6 -23 -18 -39.5t-25 -25t-34 -13.5t-38.5 -6 t-46.5 -1h-60h-30q-36 -113 -36 -182q0 -12 2 -22t5 -17t9.5 -12.5t10.5 -9.5t13 -6.5t13.5 -4t15.5 -2t14 -0.5h15h13q60 0 131 21.5t74 21.5q0 -45 -17 -74.5t-53 -43.5t-76 -18.5t-103 -4.5q-24 0 -70 0.5t-69 0.5q-51 0 -68 22t-17 68q0 49 22 137q5 21 17.5 68l18 66.5 t15 58l14 57.5t10.5 48t9 47t5 38t2 35q-1 32 -5 31q-13 -3 -32 -3q-4 1 -3 17q0 14 6 28q13 27 23.5 35.5t33.5 10.5zM315 847q0 -9 14.5 -14t27.5 -3q95 17 170 59q62 29 62 61q0 23 -29 37t-84 14q-66 -87 -154 -144q-7 -4 -7 -10z" />
<glyph unicode="&#xca;" horiz-adv-x="577" d="M208 758q126 12 254 12q22 0 57 2t48 2q52 0 69 -18q-6 -41 -27 -72.5t-52 -31.5q-1 0 -26.5 12.5t-57.5 12.5h-37q-15 0 -40 1t-35 1h-44q12 -13 12 -30q0 -11 -2 -16q-24 -112 -43 -192h59q85 0 177 15q0 -10 -3 -24q-6 -23 -18 -39.5t-25 -25t-34 -13.5t-38.5 -6 t-46.5 -1h-60h-30q-36 -113 -36 -182q0 -12 2 -22t5 -17t9.5 -12.5t10.5 -9.5t13 -6.5t13.5 -4t15.5 -2t14 -0.5h15h13q60 0 131 21.5t74 21.5q0 -45 -17 -74.5t-53 -43.5t-76 -18.5t-103 -4.5q-24 0 -70 0.5t-69 0.5q-51 0 -68 22t-17 68q0 49 22 137q5 21 17.5 68l18 66.5 t15 58l14 57.5t10.5 48t9 47t5 38t2 35q-1 32 -5 31q-13 -3 -32 -3q-4 1 -3 17q0 14 6 28q13 27 23.5 35.5t33.5 10.5z" />
<glyph unicode="&#xcb;" horiz-adv-x="577" d="M474 881q0 -46 52 -46q40 0 80 24q17 43 17 66q0 24 -16.5 37.5t-45.5 13.5q-33 0 -75 -21q0 -6 -6 -29t-6 -45zM258 881q0 -46 52 -46q40 0 80 24q17 43 17 66q0 24 -16.5 37.5t-45.5 13.5q-33 0 -75 -21q0 -6 -6 -29t-6 -45zM208 758q126 12 254 12q22 0 57 2t48 2 q52 0 69 -18q-6 -41 -27 -72.5t-52 -31.5q-1 0 -26.5 12.5t-57.5 12.5h-37q-15 0 -40 1t-35 1h-44q12 -13 12 -30q0 -11 -2 -16q-24 -112 -43 -192h59q85 0 177 15q0 -10 -3 -24q-6 -23 -18 -39.5t-25 -25t-34 -13.5t-38.5 -6t-46.5 -1h-60h-30q-36 -113 -36 -182 q0 -12 2 -22t5 -17t9.5 -12.5t10.5 -9.5t13 -6.5t13.5 -4t15.5 -2t14 -0.5h15h13q60 0 131 21.5t74 21.5q0 -45 -17 -74.5t-53 -43.5t-76 -18.5t-103 -4.5q-24 0 -70 0.5t-69 0.5q-51 0 -68 22t-17 68q0 49 22 137q5 21 17.5 68l18 66.5t15 58l14 57.5t10.5 48t9 47t5 38 t2 35q-1 32 -5 31q-13 -3 -32 -3q-4 1 -3 17q0 14 6 28q13 27 23.5 35.5t33.5 10.5z" />
<glyph unicode="&#xcc;" horiz-adv-x="377" d="M117 145q53 211 91 390q15 69 18 121q0 11 0.5 21.5t-5.5 20.5t-18 15q-7 1 -10 10q-3 10 3 14q65 38 127 38q37 0 53 -20q16 -19 10 -57q-98 -418 -114 -498q-15 -75 -15 -103q0 -39 23 -73q0 -15 -47 -27t-74 -12q-31 0 -44 16t-13 48q0 34 15 96zM411 847 q0 -9 -15 -14t-28 -3q-90 18 -156.5 54t-66.5 66q0 21 38 40.5t80 13.5l14.5 -22t16 -23.5t15.5 -20t20 -23t21 -19.5l24.5 -17.5t27 -20t9.5 -11.5z" />
<glyph unicode="&#xcd;" horiz-adv-x="377" d="M249 846q0 -9 14.5 -14t27.5 -3q95 17 170 59q62 29 62 61q0 23 -29 37t-84 14q-66 -87 -154 -144q-7 -4 -7 -10zM117 145q53 211 91 390q15 69 18 121q0 11 0.5 21.5t-5.5 20.5t-18 15q-7 1 -10 10q-3 10 3 14q65 38 127 38q37 0 53 -20q16 -19 10 -57 q-98 -418 -114 -498q-15 -75 -15 -103q0 -39 23 -73q0 -15 -47 -27t-74 -12q-31 0 -44 16t-13 48q0 34 15 96z" />
<glyph unicode="&#xce;" horiz-adv-x="377" d="M506 847q-18 -22 -50 -22q-17 0 -49 22.5t-63 56.5q-45 -34 -91 -56.5t-69 -22.5q-29 0 -29 15l79 68q107 93 148 93q15 0 24 -6q11 -32 40.5 -75.5t59.5 -72.5zM117 145q53 211 91 390q15 69 18 121q0 11 0.5 21.5t-5.5 20.5t-18 15q-7 1 -10 10q-3 10 3 14 q65 38 127 38q37 0 53 -20q16 -19 10 -57q-98 -418 -114 -498q-15 -75 -15 -103q0 -39 23 -73q0 -15 -47 -27t-74 -12q-31 0 -44 16t-13 48q0 34 15 96z" />
<glyph unicode="&#xcf;" horiz-adv-x="377" d="M380 881q0 -46 52 -46q40 0 80 24q17 43 17 66q0 24 -16.5 37.5t-45.5 13.5q-33 0 -75 -21q0 -6 -6 -29t-6 -45zM164 881q0 -46 52 -46q40 0 80 24q17 43 17 66q0 24 -16.5 37.5t-45.5 13.5q-33 0 -75 -21q0 -6 -6 -29t-6 -45zM117 145q53 211 91 390q15 69 18 121 q0 11 0.5 21.5t-5.5 20.5t-18 15q-7 1 -10 10q-3 10 3 14q65 38 127 38q37 0 53 -20q16 -19 10 -57q-98 -418 -114 -498q-15 -75 -15 -103q0 -39 23 -73q0 -15 -47 -27t-74 -12q-31 0 -44 16t-13 48q0 34 15 96z" />
<glyph unicode="&#xd0;" d="M424 785q144 0 222 -66.5t78 -204.5q0 -139 -65 -261.5t-171.5 -195t-225.5 -72.5q-108 0 -195 65q-1 10 5 39q21 95 62 260h-33q-34 0 -51 -5q10 43 23 63t44 20l35 -1q30 132 37 174q3 15 3 24q0 16 -15 24.5t-15 17.5q0 42 23 76q115 43 239 43zM320 76q69 0 128.5 61 t92.5 155t33 195q0 99 -43.5 154t-125.5 55q-33 0 -78 -10q7 -21 7 -46q0 -44 -38 -214h29q70 0 118 9q-5 -32 -12.5 -49.5t-26 -26t-34.5 -9.5t-56 -1h-15h-21q-6 -28 -17 -74.5l-19 -82l-14 -62.5q7 -29 28 -41.5t64 -12.5z" />
<glyph unicode="&#xd1;" horiz-adv-x="747" d="M625 2q-48 -16 -103 -16q-27 0 -55 67q-48 117 -169 435q-3 7 -8 23t-8 24q-35 -132 -65 -274.5t-30 -177.5q0 -47 22 -75q-57 -22 -94 -22q-60 0 -60 58q0 17 6.5 49t14.5 61.5l23.5 85.5l24.5 91q80 304 80 343q0 33 -18 57q60 46 109 46q32 0 55.5 -36t50.5 -124 q104 -339 157 -447q11 32 58 228q48 199 48 282q0 47 -19 77q52 23 90 23q60 0 60 -67q0 -19 -3 -35q-1 -11 -82 -330.5t-85 -345.5zM734 972q-8 -55 -42 -91q-32 -37 -77 -37q-37 0 -112 41q-66 37 -94 37q-8 0 -13 -2q-31 -9 -44 -62q-1 -3 -3.5 -8.5t-3.5 -8.5 q-1 -1 -3 -1q-11 0 -21 8q-11 9 -11 17q0 5 1.5 15t1.5 12q11 49 40 81q31 32 73 32q35 1 114 -40q70 -36 97 -36q3 0 11 2q32 8 45 65q4 10 5 15q1 1 3 1q3 0 11 -3q22 -10 22 -37z" />
<glyph unicode="&#xd2;" d="M504 786q109 0 166.5 -66.5t57.5 -189.5q0 -95 -33.5 -193.5t-90 -178.5t-139 -131t-171.5 -51q-109 0 -164.5 66t-55.5 190q0 98 32.5 197t88 178t137.5 129t172 50zM340 60q55 8 102 62.5t75.5 128.5t44.5 150t16 136q0 76 -27 120.5t-84 44.5q-59 0 -115.5 -76 t-89.5 -182t-33 -197t27 -143t84 -44zM594 847q0 -9 -15 -14t-28 -3q-90 18 -156.5 54t-66.5 66q0 21 38 40.5t80 13.5l14.5 -22t16 -23.5t15.5 -20t20 -23t21 -19.5l24.5 -17.5t27 -20t9.5 -11.5z" />
<glyph unicode="&#xd3;" d="M447 846q0 -9 14.5 -14t27.5 -3q95 17 170 59q62 29 62 61q0 23 -29 37t-84 14q-66 -87 -154 -144q-7 -4 -7 -10zM504 786q109 0 166.5 -66.5t57.5 -189.5q0 -95 -33.5 -193.5t-90 -178.5t-139 -131t-171.5 -51q-109 0 -164.5 66t-55.5 190q0 98 32.5 197t88 178 t137.5 129t172 50zM340 60q55 8 102 62.5t75.5 128.5t44.5 150t16 136q0 76 -27 120.5t-84 44.5q-59 0 -115.5 -76t-89.5 -182t-33 -197t27 -143t84 -44z" />
<glyph unicode="&#xd4;" d="M504 786q109 0 166.5 -66.5t57.5 -189.5q0 -95 -33.5 -193.5t-90 -178.5t-139 -131t-171.5 -51q-109 0 -164.5 66t-55.5 190q0 98 32.5 197t88 178t137.5 129t172 50zM340 60q55 8 102 62.5t75.5 128.5t44.5 150t16 136q0 76 -27 120.5t-84 44.5q-59 0 -115.5 -76 t-89.5 -182t-33 -197t27 -143t84 -44z" />
<glyph unicode="&#xd5;" d="M504 786q109 0 166.5 -66.5t57.5 -189.5q0 -95 -33.5 -193.5t-90 -178.5t-139 -131t-171.5 -51q-109 0 -164.5 66t-55.5 190q0 98 32.5 197t88 178t137.5 129t172 50zM340 60q55 8 102 62.5t75.5 128.5t44.5 150t16 136q0 76 -27 120.5t-84 44.5q-59 0 -115.5 -76 t-89.5 -182t-33 -197t27 -143t84 -44zM734 972q-8 -55 -42 -91q-32 -37 -77 -37q-37 0 -112 41q-66 37 -94 37q-8 0 -13 -2q-31 -9 -44 -62q-1 -3 -3.5 -8.5t-3.5 -8.5q-1 -1 -3 -1q-11 0 -21 8q-11 9 -11 17q0 5 1.5 15t1.5 12q11 49 40 81q31 32 73 32q35 1 114 -40 q70 -36 97 -36q3 0 11 2q32 8 45 65q4 10 5 15q1 1 3 1q4 0 11 -3q22 -10 22 -37z" />
<glyph unicode="&#xd6;" d="M578 881q0 -46 52 -46q40 0 80 24q17 43 17 66q0 24 -16.5 37.5t-45.5 13.5q-33 0 -75 -21q0 -6 -6 -29t-6 -45zM362 881q0 -46 52 -46q40 0 80 24q17 43 17 66q0 24 -16.5 37.5t-45.5 13.5q-33 0 -75 -21q0 -6 -6 -29t-6 -45zM504 786q109 0 166.5 -66.5t57.5 -189.5 q0 -95 -33.5 -193.5t-90 -178.5t-139 -131t-171.5 -51q-109 0 -164.5 66t-55.5 190q0 98 32.5 197t88 178t137.5 129t172 50zM340 60q55 8 102 62.5t75.5 128.5t44.5 150t16 136q0 76 -27 120.5t-84 44.5q-59 0 -115.5 -76t-89.5 -182t-33 -197t27 -143t84 -44z" />
<glyph unicode="&#xd7;" horiz-adv-x="583" d="M547 397q-14 -23 -63 -66.5t-95 -74.5q68 -108 122 -161q-52 -41 -88 -41q-7 0 -16 6t-18.5 17.5l-18.5 22.5t-19.5 28l-17 27t-15.5 26t-11 19q-107 -77 -173 -157q-53 44 -53 76q0 21 59 70t119 91l-20.5 28.5l-22.5 31t-21 25.5t-26.5 26t-28.5 20q41 57 81 57 q11 0 24 -10t27.5 -28t24.5 -32.5l24 -36.5t17 -26q105 82 165 148q48 -45 48 -68q0 -10 -4 -18z" />
<glyph unicode="&#xd8;" horiz-adv-x="695" d="M795 832q-39 -33 -116 -123q46 -66 46 -176q0 -95 -33.5 -193.5t-90 -178.5t-139 -131t-171.5 -51q-70 0 -119 29l-38 -67q-12 -26 -25 -26q-24 0 -48 24q10 21 64 108q-54 66 -54 188q0 98 32.5 197t88 178t137.5 129t172 50q83 0 136 -38l20 24t19.5 20.5t25 20.5 t25 11t31.5 6q25 0 37 -1zM226 250q0 -16 2 -46l94 134q13 18 234 307q-27 60 -92 60q-59 0 -115.5 -76t-89.5 -182t-33 -197zM337 63q55 8 102 62.5t75.5 128.5t44.5 150t16 136q0 16 -2 42l-140 -182q-94 -127 -188 -275q28 -70 92 -62z" />
<glyph unicode="&#xd9;" horiz-adv-x="703" d="M557 847q0 -9 -15 -14t-28 -3q-90 18 -156.5 54t-66.5 66q0 21 38 40.5t80 13.5l14.5 -22t16 -23.5t15.5 -20t20 -23t21 -19.5l24.5 -17.5t27 -20t9.5 -11.5zM551 -20q-37 4 -48.5 30.5t-11.5 70.5v35q0 3 -1 2q-60 -69 -116 -105t-126 -36q-85 0 -123 52t-38 130 q0 25 3 47q7 50 50.5 239.5t45.5 232.5q0 18 -3 29t-11.5 23t-9.5 14q20 17 58 25.5t68 8.5q52 0 55 -45q0 -36 -15.5 -108.5t-40.5 -173t-35 -145.5q-20 -93 -20 -133q0 -92 72 -92q69 0 142 86q33 45 64 159q70 254 88 386q0 2 -2 20q-7 46 85 46q49 0 64.5 -7.5 t15.5 -29.5q0 -9 -3 -20t-9 -28t-9 -27q-108 -361 -108 -507q0 -25 3 -45q13 -77 40 -101q-56 -39 -124 -33z" />
<glyph unicode="&#xda;" horiz-adv-x="703" d="M413 846q0 -9 14.5 -14t27.5 -3q95 17 170 59q62 29 62 61q0 23 -29 37t-84 14q-66 -87 -154 -144q-7 -4 -7 -10zM551 -20q-37 4 -48.5 30.5t-11.5 70.5v35q0 3 -1 2q-60 -69 -116 -105t-126 -36q-85 0 -123 52t-38 130q0 25 3 47q7 50 50.5 239.5t45.5 232.5q0 18 -3 29 t-11.5 23t-9.5 14q20 17 58 25.5t68 8.5q52 0 55 -45q0 -36 -15.5 -108.5t-40.5 -173t-35 -145.5q-20 -93 -20 -133q0 -92 72 -92q69 0 142 86q33 45 64 159q70 254 88 386q0 2 -2 20q-7 46 85 46q49 0 64.5 -7.5t15.5 -29.5q0 -9 -3 -20t-9 -28t-9 -27q-108 -361 -108 -507 q0 -25 3 -45q13 -77 40 -101q-56 -39 -124 -33z" />
<glyph unicode="&#xdb;" horiz-adv-x="703" d="M551 -20q-37 4 -48.5 30.5t-11.5 70.5v35q0 3 -1 2q-60 -69 -116 -105t-126 -36q-85 0 -123 52t-38 130q0 25 3 47q7 50 50.5 239.5t45.5 232.5q0 18 -3 29t-11.5 23t-9.5 14q20 17 58 25.5t68 8.5q52 0 55 -45q0 -36 -15.5 -108.5t-40.5 -173t-35 -145.5 q-20 -93 -20 -133q0 -92 72 -92q69 0 142 86q33 45 64 159q70 254 88 386q0 2 -2 20q-7 46 85 46q49 0 64.5 -7.5t15.5 -29.5q0 -9 -3 -20t-9 -28t-9 -27q-108 -361 -108 -507q0 -25 3 -45q13 -77 40 -101q-56 -39 -124 -33z" />
<glyph unicode="&#xdc;" horiz-adv-x="703" d="M539 881q0 -46 52 -46q39 0 80 24q17 43 17 66q0 24 -16.5 37.5t-45.5 13.5q-33 0 -75 -21q0 -6 -6 -29t-6 -45zM323 881q0 -46 52 -46q39 0 80 24q17 43 17 66q0 24 -16.5 37.5t-45.5 13.5q-33 0 -75 -21q0 -6 -6 -29t-6 -45zM551 -20q-37 4 -48.5 30.5t-11.5 70.5v35 q0 3 -1 2q-60 -69 -116 -105t-126 -36q-85 0 -123 52t-38 130q0 25 3 47q7 50 50.5 239.5t45.5 232.5q0 18 -3 29t-11.5 23t-9.5 14q20 17 58 25.5t68 8.5q52 0 55 -45q0 -36 -15.5 -108.5t-40.5 -173t-35 -145.5q-20 -93 -20 -133q0 -92 72 -92q69 0 142 86q33 45 64 159 q70 254 88 386q0 2 -2 20q-7 46 85 46q49 0 64.5 -7.5t15.5 -29.5q0 -9 -3 -20t-9 -28t-9 -27q-108 -361 -108 -507q0 -25 3 -45q13 -77 40 -101q-56 -39 -124 -33z" />
<glyph unicode="&#xdd;" horiz-adv-x="617" d="M552 888q-75 -42 -171 -59q-3 -1 -10 -1q-8 0 -19.5 5.5t-11.5 12.5q0 6 6 10q36 23 58 39q58 46 87 90q2 3 4.5 8t4.5 7h15q40 0 56 -7q42 -17 42 -44q0 -5 -3 -10q-9 -27 -58 -51zM463 378l63 76.5l83 103t63 98t30 90.5q0 30 -27.5 47.5t-79.5 17.5q-19 0 -29 -2 q3 -17 3 -34q0 -36 -12 -61q-7 -16 -14 -29l-12.5 -23.5t-20.5 -35l-25.5 -41.5l-40.5 -66l-54 -87q-45 216 -78 293q-25 60 -84 60q-65 0 -131 -63q4 -1 12 -5.5t13 -6.5q40 -18 84 -128.5t68 -262.5q-6 -51 -54 -150.5t-48 -138.5q0 -46 63 -46q55 0 105 25q-11 29 -11 54 q0 51 41.5 148.5t92.5 166.5z" />
<glyph unicode="&#xdf;" horiz-adv-x="577" d="M567 179q0 -78 -70 -134t-154 -56t-91 49q0 24 29 68q8 -22 29.5 -35.5t46.5 -13.5q35 0 54 22t19 62q0 17 -23 53.5t-46.5 79.5t-23.5 76q0 32 29.5 79.5l59 98t29.5 90.5q0 30 -13 47t-34 17q-44 0 -73.5 -58t-61.5 -191l-83 -366q-20 -84 -73 -157q-24 -11 -44 -11 q-15 0 -32 8q-19 1 -25.5 8.5t-6.5 23.5q29 69 59 186q15 45 32 143.5t23 127.5q81 353 315 360q156 0 156 -115q0 -57 -51 -106q-48 -42 -68 -66.5t-20 -44.5q0 -29 24 -63q88 -119 88 -182z" />
<glyph unicode="&#xe0;" horiz-adv-x="578" d="M565 133q46 50 61 50q5 0 5 -9q0 -55 -62 -118.5t-115 -63.5q-89 0 -89 106q0 46 5 81q-113 -183 -214 -188h-11q-108 0 -108 141q2 96 46.5 191.5t118 158.5t151.5 63q62 0 98 -28q24 26 63 26q43 0 89 -24q-27 -40 -62.5 -180t-35.5 -199q0 -17 11 -42q17 3 49 35z M306 188q76 110 117 224q-8 29 -31 43.5t-49 14.5q-38 0 -76 -53.5t-61 -128.5t-23 -140q3 -52 33 -52q28 0 90 92zM487 631q0 -9 -15 -14t-28 -3q-90 18 -156.5 54t-66.5 66q0 21 38 40.5t80 13.5l14.5 -22t16 -23.5t15.5 -20t20 -23t21 -19.5l24.5 -17.5t27 -20t9.5 -11.5 z" />
<glyph unicode="&#xe1;" horiz-adv-x="578" d="M565 133q46 50 61 50q5 0 5 -9q0 -55 -62 -118.5t-115 -63.5q-89 0 -89 106q0 46 5 81q-113 -183 -214 -188h-11q-108 0 -108 141q2 96 46.5 191.5t118 158.5t151.5 63q62 0 98 -28q24 26 63 26q43 0 89 -24q-27 -40 -62.5 -180t-35.5 -199q0 -17 11 -42q17 3 49 35z M306 188q76 110 117 224q-8 29 -31 43.5t-49 14.5q-38 0 -76 -53.5t-61 -128.5t-23 -140q3 -52 33 -52q28 0 90 92zM316 630q0 -9 14.5 -14t27.5 -3q95 17 170 59q62 29 62 61q0 23 -29 37t-84 14q-66 -87 -154 -144q-7 -4 -7 -10z" />
<glyph unicode="&#xe2;" horiz-adv-x="578" d="M565 133q46 50 61 50q5 0 5 -9q0 -55 -62 -118.5t-115 -63.5q-89 0 -89 106q0 46 5 81q-113 -183 -214 -188h-11q-108 0 -108 141q2 96 46.5 191.5t118 158.5t151.5 63q62 0 98 -28q24 26 63 26q43 0 89 -24q-27 -40 -62.5 -180t-35.5 -199q0 -17 11 -42q17 3 49 35z M306 188q76 110 117 224q-8 29 -31 43.5t-49 14.5q-38 0 -76 -53.5t-61 -128.5t-23 -140q3 -52 33 -52q28 0 90 92zM583 636q-18 -22 -50 -22q-17 0 -49 22.5t-63 56.5q-45 -34 -91 -56.5t-69 -22.5q-29 0 -29 15l79 68q107 93 148 93q15 0 24 -6q11 -32 40.5 -75.5 t59.5 -72.5z" />
<glyph unicode="&#xe3;" horiz-adv-x="578" d="M565 133q46 50 61 50q5 0 5 -9q0 -55 -62 -118.5t-115 -63.5q-89 0 -89 106q0 46 5 81q-113 -183 -214 -188h-11q-108 0 -108 141q2 96 46.5 191.5t118 158.5t151.5 63q62 0 98 -28q24 26 63 26q43 0 89 -24q-27 -40 -62.5 -180t-35.5 -199q0 -17 11 -42q17 3 49 35z M306 188q76 110 117 224q-8 29 -31 43.5t-49 14.5q-38 0 -76 -53.5t-61 -128.5t-23 -140q3 -52 33 -52q28 0 90 92zM625 753q-8 -55 -42 -91q-32 -37 -77 -37q-37 0 -112 41q-66 37 -94 37q-8 0 -13 -2q-31 -9 -44 -62q-1 -3 -3.5 -8.5t-3.5 -8.5q-1 -1 -3 -1q-11 0 -21 8 q-11 9 -11 17q0 5 1.5 15t1.5 12q11 49 40 81q31 32 73 32q35 1 114 -40q70 -36 97 -36q3 0 11 2q32 8 45 65q4 10 5 15q1 1 3 1q4 0 11 -3q22 -10 22 -37z" />
<glyph unicode="&#xe4;" horiz-adv-x="578" d="M453 672q0 -46 52 -46q39 0 80 24q17 43 17 66q0 24 -16.5 37.5t-45.5 13.5q-33 0 -75 -21q0 -6 -6 -29t-6 -45zM237 672q0 -46 52 -46q39 0 80 24q17 43 17 66q0 24 -16.5 37.5t-45.5 13.5q-33 0 -75 -21q0 -6 -6 -29t-6 -45zM565 133q46 50 61 50q5 0 5 -9 q0 -55 -62 -118.5t-115 -63.5q-89 0 -89 106q0 46 5 81q-113 -183 -214 -188h-11q-108 0 -108 141q2 96 46.5 191.5t118 158.5t151.5 63q62 0 98 -28q24 26 63 26q43 0 89 -24q-27 -40 -62.5 -180t-35.5 -199q0 -17 11 -42q17 3 49 35zM306 188q76 110 117 224 q-8 29 -31 43.5t-49 14.5q-38 0 -76 -53.5t-61 -128.5t-23 -140q3 -52 33 -52q28 0 90 92z" />
<glyph unicode="&#xe5;" horiz-adv-x="578" d="M435 836q51 0 80 -32.5t18 -78.5q-10 -46 -53.5 -77.5t-95.5 -31.5q-51 0 -79.5 31.5t-18.5 77.5q11 46 54.5 78.5t94.5 32.5zM461 727q5 19 -7 32.5t-33 13.5q-22 0 -40 -13.5t-23 -32.5q-4 -21 7.5 -35t33.5 -14q21 0 39.5 14t22.5 35zM565 133q46 50 61 50q5 0 5 -9 q0 -55 -62 -118.5t-115 -63.5q-89 0 -89 106q0 46 5 81q-113 -183 -214 -188h-11q-108 0 -108 141q2 96 46.5 191.5t118 158.5t151.5 63q62 0 98 -28q24 26 63 26q43 0 89 -24q-27 -40 -62.5 -180t-35.5 -199q0 -17 11 -42q17 3 49 35zM306 188q76 110 117 224 q-8 29 -31 43.5t-49 14.5q-38 0 -76 -53.5t-61 -128.5t-23 -140q3 -52 33 -52q28 0 90 92z" />
<glyph unicode="&#xe6;" horiz-adv-x="791" d="M589 233q-51 -22 -68 -40q-22 -24 -3 -77q14 -35 52 -44.5t71 2.5q64 16 143 81q10 -8 10 -40q-2 -20 -12 -35q-19 -26 -59 -48q-70 -39 -162 -42q-96 -2 -144 42q-46 44 -46 143q-50 -77 -99 -121q-68 -63 -132 -64q-27 -1 -50 13t-35 38q-18 38 -16 96q3 158 115 299 q58 73 129 98q39 13 89 10q46 -2 77 -27q27 42 101 17l-15 -45q56 43 127 55q75 12 118 -15q26 -16 35.5 -45.5t2.5 -60.5q-13 -55 -78 -109q-52 -41 -151 -81zM423 408q4 11 -12 33q-19 22 -59 29q-34 5 -68 -31q-24 -24 -46 -70q-36 -72 -51 -172q-2 -13 -2.5 -29.5 t2 -38.5t12.5 -28.5t30 0.5q18 9 41 36q24 28 49 68q54 89 88 167q6 12 16 36zM527 286q-1 -8 -5 -23t-5 -22q9 20 26 34.5t44.5 30.5t36.5 22q34 25 49 50q25 44 16 76q-5 15 -20 21.5t-31 2.5q-31 -7 -53 -42q-35 -49 -58 -150z" />
<glyph unicode="&#xe7;" horiz-adv-x="456" d="M325 -113q0 -38 -43 -64t-117 -26q-63 0 -63 27q0 10 6 24q24 -6 45 -6q34 0 58.5 8.5t24.5 22.5q0 4 -0.5 7.5t-1.5 6t-3 5t-3.5 4t-5.5 3t-5.5 2.5t-7 2.5t-7.5 2t-8.5 2t-9.5 2.5q-5 24 12 42q16 19 40 19q9 0 11 -1q-9 -18 -9 -24q87 -15 87 -59zM461 162 q8 -15 8 -34q0 -40 -44.5 -73t-100 -49t-101.5 -16q-180 0 -180 169q0 151 102 269t239 118q126 0 126 -63q0 -55 -94 -85q-10 44 -25.5 61t-45.5 17q-64 0 -105.5 -78.5t-41.5 -211.5q0 -49 19 -81t57 -32q53 0 102.5 24t84.5 65z" />
<glyph unicode="&#xe8;" horiz-adv-x="480" d="M296 69q95 9 177 88q23 -42 -6 -79q-27 -34 -75 -54q-74 -34 -158 -34q-89 0 -137 38.5t-52 115.5t22 150t78 129q103 123 242 123q63 0 93.5 -26.5t29.5 -77.5q0 -52 -62 -110t-161 -93q-33 -11 -65 -30t-33 -36q-2 -40 11 -58q37 -54 96 -46zM209 286l-10 -45q3 7 7 13 t7.5 10.5t10 10l9.5 8t12 7.5t11.5 6.5l13 7.5t13.5 7q44 24 63.5 48.5t28.5 54.5q8 27 -2 46t-36 19q-83 0 -128 -193zM458 630q0 -9 -15 -14t-28 -3q-90 18 -156.5 54t-66.5 66q0 21 38 40.5t80 13.5l14.5 -22t16 -23.5t15.5 -20t20 -23t21 -19.5l24.5 -17.5t27 -20 t9.5 -11.5z" />
<glyph unicode="&#xe9;" horiz-adv-x="480" d="M296 69q95 9 177 88q23 -42 -6 -79q-27 -34 -75 -54q-74 -34 -158 -34q-89 0 -137 38.5t-52 115.5t22 150t78 129q103 123 242 123q63 0 93.5 -26.5t29.5 -77.5q0 -52 -62 -110t-161 -93q-33 -11 -65 -30t-33 -36q-2 -40 11 -58q37 -54 96 -46zM209 286l-10 -45q3 7 7 13 t7.5 10.5t10 10l9.5 8t12 7.5t11.5 6.5l13 7.5t13.5 7q44 24 63.5 48.5t28.5 54.5q8 27 -2 46t-36 19q-83 0 -128 -193zM288 630q0 -9 14.5 -14t27.5 -3q95 17 170 59q62 29 62 61q0 23 -29 37t-84 14q-66 -87 -154 -144q-7 -4 -7 -10z" />
<glyph unicode="&#xea;" horiz-adv-x="479" d="M296 69q95 9 177 88q23 -42 -6 -79q-27 -34 -75 -54q-74 -34 -158 -34q-89 0 -137 38.5t-52 115.5t22 150t78 129q103 123 242 123q63 0 93.5 -26.5t29.5 -77.5q0 -52 -62 -110t-161 -93q-33 -11 -65 -30t-33 -36q-2 -40 11 -58q37 -54 96 -46zM209 286l-10 -45q3 7 7 13 t7.5 10.5t10 10l9.5 8t12 7.5t11.5 6.5l13 7.5t13.5 7q44 24 63.5 48.5t28.5 54.5q8 27 -2 46t-36 19q-83 0 -128 -193zM533 636q-18 -22 -50 -22q-17 0 -49 22.5t-63 56.5q-45 -34 -91 -56.5t-69 -22.5q-29 0 -29 15l79 68q107 93 148 93q15 0 24 -6q11 -32 40.5 -75.5 t59.5 -72.5z" />
<glyph unicode="&#xeb;" horiz-adv-x="480" d="M418 672q0 -46 52 -46q40 0 80 24q17 43 17 66q0 24 -16.5 37.5t-45.5 13.5q-33 0 -75 -21q0 -6 -6 -29t-6 -45zM202 672q0 -46 52 -46q40 0 80 24q17 43 17 66q0 24 -16.5 37.5t-45.5 13.5q-33 0 -75 -21q0 -6 -6 -29t-6 -45zM296 69q95 9 177 88q23 -42 -6 -79 q-27 -34 -75 -54q-74 -34 -158 -34q-89 0 -137 38.5t-52 115.5t22 150t78 129q103 123 242 123q63 0 93.5 -26.5t29.5 -77.5q0 -52 -62 -110t-161 -93q-33 -11 -65 -30t-33 -36q-2 -40 11 -58q37 -54 96 -46zM209 286l-10 -45q3 7 7 13t7.5 10.5t10 10l9.5 8t12 7.5 t11.5 6.5l13 7.5t13.5 7q44 24 63.5 48.5t28.5 54.5q8 27 -2 46t-36 19q-83 0 -128 -193z" />
<glyph unicode="&#xec;" horiz-adv-x="295" d="M284 134q-34 -32 -49 -35q-11 20 -11 43q0 55 15 121q2 7 43 162q5 18 11 50q6 33 -12 52q-15 16 -50 16q-43 0 -100 -21q15 -22 15 -50q0 -29 -5 -54q-23 -122 -37 -171q-26 -97 -20 -161q6 -92 89 -92q39 0 89.5 39.5t71.5 87.5q16 38 16 54q0 31 -66 -41zM388 630 q0 -9 -15 -14t-28 -3q-90 18 -156.5 54t-66.5 66q0 21 38 40.5t80 13.5l14.5 -22t16 -23.5t15.5 -20t20 -23t21 -19.5l24.5 -17.5t27 -20t9.5 -11.5z" />
<glyph unicode="&#xed;" horiz-adv-x="291" d="M284 134q-34 -32 -49 -35q-11 20 -11 43q0 55 15 121q2 7 43 162q5 18 11 50q6 33 -12 52q-15 16 -50 16q-43 0 -100 -21q15 -22 15 -50q0 -29 -5 -54q-23 -122 -37 -171q-26 -97 -20 -161q6 -92 89 -92q39 0 89.5 39.5t71.5 87.5q16 38 16 54q0 31 -66 -41zM128 630 q0 -9 14.5 -14t27.5 -3q95 17 170 59q62 29 62 61q0 23 -29 37t-84 14q-66 -87 -154 -144q-7 -4 -7 -10z" />
<glyph unicode="&#xee;" horiz-adv-x="295" d="M284 134q-34 -32 -49 -35q-11 20 -11 43q0 55 15 121q2 7 43 162q5 18 11 50q6 33 -12 52q-15 16 -50 16q-43 0 -100 -21q15 -22 15 -50q0 -29 -5 -54q-23 -122 -37 -171q-26 -97 -20 -161q6 -92 89 -92q39 0 89.5 39.5t71.5 87.5q16 38 16 54q0 31 -66 -41zM418 636 q-18 -22 -50 -22q-17 0 -49 22.5t-63 56.5q-45 -34 -91 -56.5t-69 -22.5q-29 0 -29 15l79 68q107 93 148 93q15 0 24 -6q11 -32 40.5 -75.5t59.5 -72.5z" />
<glyph unicode="&#xef;" horiz-adv-x="295" d="M288 672q0 -46 52 -46q40 0 80 24q17 43 17 66q0 24 -16.5 37.5t-45.5 13.5q-33 0 -75 -21q0 -6 -6 -29t-6 -45zM72 672q0 -46 52 -46q40 0 80 24q17 43 17 66q0 24 -16.5 37.5t-45.5 13.5q-33 0 -75 -21q0 -6 -6 -29t-6 -45zM284 134q-34 -32 -49 -35q-11 20 -11 43 q0 55 15 121q2 7 43 162q5 18 11 50q6 33 -12 52q-15 16 -50 16q-43 0 -100 -21q15 -22 15 -50q0 -29 -5 -54q-23 -122 -37 -171q-26 -97 -20 -161q6 -92 89 -92q39 0 89.5 39.5t71.5 87.5q16 38 16 54q0 31 -66 -41z" />
<glyph unicode="&#xf0;" horiz-adv-x="544" d="M353 739q15 19 28.5 40.5t28 48.5t20.5 36q17 -19 28 -34q10 -13 10 -29t-10 -34t-24 -34.5t-15 -18.5q158 -97 158 -286q0 -103 -46 -203t-132 -167.5t-189 -67.5q-164 0 -164 162q0 143 106 251t245 108q12 0 18 -1q-1 2 -6 19l-7.5 25.5t-9.5 25.5t-13.5 27t-16 20.5 t-20.5 15.5q-46 -59 -81 -120l-8 11q-6 9 -15.5 18.5t-14 15.5t-4.5 14q0 21 53 85h-6q-19 0 -40 -4.5t-46 -12t-34 -9.5q6 65 37.5 87.5t88.5 22.5q38 0 81 -12zM423 372q-7 20 -11 29.5t-10.5 20t-15.5 14.5t-21 4q-41 0 -81 -48.5t-64.5 -118.5t-24.5 -134 q0 -36 13.5 -55.5t36.5 -19.5q67 0 117.5 95t60.5 213z" />
<glyph unicode="&#xf1;" horiz-adv-x="591" d="M418 422q-36 0 -123 -137q-24 -39 -42 -74t-29 -61.5l-40 -99.5q-11 -29 -29 -41.5t-54 -12.5q-27 0 -78 8q32 80 59 169q54 179 54 277q0 42 -11 65q62 28 105 28q21 0 37 -12t16 -36q0 -34 -36 -182q50 93 122.5 163t132.5 70q34 0 55 -20.5t21 -52.5q0 -59 -33 -194 q-30 -105 -30 -137q0 -25 10 -43q23 8 49 35q48 50 60 50q6 0 6 -8q0 -55 -62 -118.5t-115 -63.5q-41 0 -65.5 23t-24.5 69q0 24 20 114q40 174 40 200q0 22 -15 22zM596 753q-8 -55 -42 -91q-32 -37 -77 -37q-37 0 -112 41q-66 37 -94 37q-8 0 -13 -2q-31 -9 -44 -62 q-1 -3 -3.5 -8.5t-3.5 -8.5q-1 -1 -3 -1q-11 0 -21 8q-11 9 -11 17q0 5 1.5 14.5t1.5 12.5q11 49 40 81q31 32 73 32q35 1 114 -40q70 -36 97 -36q3 0 11 2q32 8 45 65q4 10 5 15q1 1 3 1q3 0 11 -3q22 -10 22 -37z" />
<glyph unicode="&#xf2;" horiz-adv-x="535" d="M146 434q101 112 227 112q83 0 133 -48t50 -130q0 -93 -43 -180.5t-119 -142.5t-162 -55q-83 0 -133 50t-50 136q0 144 97 258zM407 368q0 104 -64 104q-42 0 -77 -53.5t-52.5 -123t-17.5 -130.5q0 -102 66 -102q41 0 76 53t52 122t17 130zM466 630q0 -9 -15 -14t-28 -3 q-90 18 -156.5 54t-66.5 66q0 21 38 40.5t80 13.5l14.5 -22t16 -23.5t15.5 -20t20 -23t21 -19.5l24.5 -17.5t27 -20t9.5 -11.5z" />
<glyph unicode="&#xf3;" horiz-adv-x="535" d="M146 434q101 112 227 112q83 0 133 -48t50 -130q0 -93 -43 -180.5t-119 -142.5t-162 -55q-83 0 -133 50t-50 136q0 144 97 258zM407 368q0 104 -64 104q-42 0 -77 -53.5t-52.5 -123t-17.5 -130.5q0 -102 66 -102q41 0 76 53t52 122t17 130zM285 630q0 -9 14.5 -14 t27.5 -3q95 17 170 59q62 29 62 61q0 23 -29 37t-84 14q-66 -87 -154 -144q-7 -4 -7 -10z" />
<glyph unicode="&#xf4;" horiz-adv-x="535" d="M146 434q101 112 227 112q83 0 133 -48t50 -130q0 -93 -43 -180.5t-119 -142.5t-162 -55q-83 0 -133 50t-50 136q0 144 97 258zM407 368q0 104 -64 104q-42 0 -77 -53.5t-52.5 -123t-17.5 -130.5q0 -102 66 -102q41 0 76 53t52 122t17 130zM551 636q-18 -22 -50 -22 q-17 0 -49 22.5t-63 56.5q-45 -34 -91 -56.5t-69 -22.5q-29 0 -29 15l79 68q107 93 148 93q15 0 24 -6q11 -32 40.5 -75.5t59.5 -72.5z" />
<glyph unicode="&#xf5;" horiz-adv-x="535" d="M146 434q101 112 227 112q83 0 133 -48t50 -130q0 -93 -43 -180.5t-119 -142.5t-162 -55q-83 0 -133 50t-50 136q0 144 97 258zM407 368q0 104 -64 104q-42 0 -77 -53.5t-52.5 -123t-17.5 -130.5q0 -102 66 -102q41 0 76 53t52 122t17 130zM594 753q-8 -55 -42 -91 q-32 -37 -77 -37q-37 0 -112 41q-66 37 -94 37q-8 0 -13 -2q-31 -9 -44 -62q-1 -3 -3.5 -8.5t-3.5 -8.5q-1 -1 -3 -1q-11 0 -21 8q-11 9 -11 17q0 5 1.5 15t1.5 12q11 49 40 81q31 32 73 32q35 1 114 -40q70 -36 97 -36q3 0 11 2q32 8 45 65q4 10 5 15q1 1 3 1q4 0 11 -3 q22 -10 22 -37z" />
<glyph unicode="&#xf6;" horiz-adv-x="535" d="M431 672q0 -46 52 -46q39 0 80 24q17 43 17 66q0 24 -16.5 37.5t-45.5 13.5q-33 0 -75 -21q0 -6 -6 -29t-6 -45zM215 672q0 -46 52 -46q39 0 80 24q17 43 17 66q0 24 -16.5 37.5t-45.5 13.5q-33 0 -75 -21q0 -6 -6 -29t-6 -45zM146 434q101 112 227 112q83 0 133 -48 t50 -130q0 -93 -43 -180.5t-119 -142.5t-162 -55q-83 0 -133 50t-50 136q0 144 97 258zM407 368q0 104 -64 104q-42 0 -77 -53.5t-52.5 -123t-17.5 -130.5q0 -102 66 -102q41 0 76 53t52 122t17 130z" />
<glyph unicode="&#xf7;" horiz-adv-x="541" d="M425 495q-2 -18 -17 -65q-41 -22 -70 -22q-62 0 -63 40q0 6 3 27t3 27q0 10 -4 19q40 35 84 35q30 0 47.5 -14.5t17.5 -38.5q0 -1 -0.5 -4t-0.5 -4zM534 348q-15 -52 -29 -73t-39 -27q-75 -11 -175 -11h-93q-67 0 -123 -13q14 79 46 97q19 10 86 12h15h166q71 1 146 15z M341 104q-3 -23 -17 -65q-34 -20 -71 -23q-63 0 -63 41q0 7 3 28t3 26q0 9 -3 19q40 35 84 35q30 0 47.5 -14.5t17.5 -38.5q0 -2 -0.5 -4t-0.5 -4z" />
<glyph unicode="&#xf8;" horiz-adv-x="535" d="M503 498q50 -48 50 -130q0 -94 -43 -181t-119 -142t-162 -55q-45 0 -83 15l-17 -28t-16 -25.5l-12 -17.5t-12.5 -13.5t-10.5 -3.5q-9 0 -23.5 9t-22.5 18q9 17 65 95q-51 51 -51 137q0 140 97.5 255t227.5 115q45 0 88 -18q44 59 95 59q25 0 37 -1q-44 -38 -88 -88z M340 471q-40 0 -74 -50t-52 -116.5t-20 -127.5l198 263q-16 31 -52 31zM259 62q55 0 100 97t45 214l-98 -136.5l-100 -139.5q16 -35 53 -35z" />
<glyph unicode="&#xf9;" horiz-adv-x="589" d="M531 543q61 -4 61 -54q0 -28 -13 -75q-4 -15 -16 -56.5t-17 -61.5l-12.5 -51t-10.5 -54.5t-3 -43.5q0 -23 11 -43q16 3 60.5 44.5t48.5 41.5q6 0 6 -9q0 -54 -62 -118t-116 -64q-89 0 -89 107q0 28 9 77q-118 -193 -233 -193q-87 0 -87 103q0 39 36 190t36 188 q0 32 -10 51q54 21 98 21q58 0 58 -55q0 -16 -10 -61l-23 -98l-22 -90t-14 -65.5t-6 -50.5q0 -26 19 -26q21 0 63 47.5t82 120.5q77 140 77 230q0 20 -7 34q40 14 86 14zM472 630q0 -9 -15 -14t-28 -3q-90 18 -156.5 54t-66.5 66q0 21 38 40.5t80 13.5l14.5 -22t16 -23.5 t15.5 -20t20 -23t21 -19.5l24.5 -17.5t27 -20t9.5 -11.5z" />
<glyph unicode="&#xfa;" horiz-adv-x="589" d="M531 543q61 -4 61 -54q0 -28 -13 -75q-4 -15 -16 -56.5t-17 -61.5l-12.5 -51t-10.5 -54.5t-3 -43.5q0 -23 11 -43q16 3 60.5 44.5t48.5 41.5q6 0 6 -9q0 -54 -62 -118t-116 -64q-89 0 -89 107q0 28 9 77q-118 -193 -233 -193q-87 0 -87 103q0 39 36 190t36 188 q0 32 -10 51q54 21 98 21q58 0 58 -55q0 -16 -10 -61l-23 -98l-22 -90t-14 -65.5t-6 -50.5q0 -26 19 -26q21 0 63 47.5t82 120.5q77 140 77 230q0 20 -7 34q40 14 86 14zM294 630q0 -9 14.5 -14t27.5 -3q95 17 170 59q62 29 62 61q0 23 -29 37t-84 14q-66 -87 -154 -144 q-7 -4 -7 -10z" />
<glyph unicode="&#xfb;" horiz-adv-x="589" d="M551 636q-18 -22 -50 -22q-17 0 -49 22.5t-63 56.5q-45 -34 -91 -56.5t-69 -22.5q-29 0 -29 15l79 68q107 93 148 93q15 0 24 -6q11 -32 40.5 -75.5t59.5 -72.5zM531 543q61 -4 61 -54q0 -28 -13 -75q-4 -15 -16 -56.5t-17 -61.5l-12.5 -51t-10.5 -54.5t-3 -43.5 q0 -23 11 -43q16 3 60.5 44.5t48.5 41.5q6 0 6 -9q0 -54 -62 -118t-116 -64q-89 0 -89 107q0 28 9 77q-118 -193 -233 -193q-87 0 -87 103q0 39 36 190t36 188q0 32 -10 51q54 21 98 21q58 0 58 -55q0 -16 -10 -61l-23 -98l-22 -90t-14 -65.5t-6 -50.5q0 -26 19 -26 q21 0 63 47.5t82 120.5q77 140 77 230q0 20 -7 34q40 14 86 14z" />
<glyph unicode="&#xfc;" horiz-adv-x="589" d="M431 672q0 -46 52 -46q39 0 80 24q17 43 17 66q0 24 -16.5 37.5t-45.5 13.5q-33 0 -75 -21q0 -6 -6 -29t-6 -45zM215 672q0 -46 52 -46q39 0 80 24q17 43 17 66q0 24 -16.5 37.5t-45.5 13.5q-33 0 -75 -21q0 -6 -6 -29t-6 -45zM531 543q61 -4 61 -54q0 -28 -13 -75 q-4 -15 -16 -56.5t-17 -61.5l-12.5 -51t-10.5 -54.5t-3 -43.5q0 -23 11 -43q16 3 60.5 44.5t48.5 41.5q6 0 6 -9q0 -54 -62 -118t-116 -64q-89 0 -89 107q0 28 9 77q-118 -193 -233 -193q-87 0 -87 103q0 39 36 190t36 188q0 32 -10 51q54 21 98 21q58 0 58 -55 q0 -16 -10 -61l-23 -98l-22 -90t-14 -65.5t-6 -50.5q0 -26 19 -26q21 0 63 47.5t82 120.5q77 140 77 230q0 20 -7 34q40 14 86 14z" />
<glyph unicode="&#xfd;" horiz-adv-x="510" d="M474 672q-75 -42 -171 -59q-3 -1 -10 -1q-8 0 -19.5 5.5t-11.5 12.5q0 6 6 10q36 23 58 39q58 46 87 90q2 3 4.5 8t4.5 7h15q40 0 56 -7q42 -17 42 -44q0 -5 -3 -10q-9 -27 -58 -51zM-76 -163q-1 3 -1 11q0 27 18 65q18 -16 50 -16q87 0 169 117q9 13 9 46q0 20 -4 50 q-44 353 -99 396q62 37 113 37q58 0 70 -82q23 -157 35 -325q77 109 123 202t46 145q0 14 -7 34t-16 30q18 3 37 3q105 0 105 -68q0 -47 -71.5 -168t-191.5 -279q-104 -138 -176.5 -192t-132.5 -54q-67 0 -76 48z" />
<glyph unicode="&#xff;" horiz-adv-x="510" d="M385 672q0 -46 52 -46q39 0 80 24q17 43 17 66q0 24 -16.5 37.5t-45.5 13.5q-33 0 -75 -21q0 -6 -6 -29t-6 -45zM169 672q0 -46 52 -46q39 0 80 24q17 43 17 66q0 24 -16.5 37.5t-45.5 13.5q-33 0 -75 -21q0 -6 -6 -29t-6 -45zM-76 -163q-1 3 -1 11q0 27 18 65 q18 -16 50 -16q87 0 169 117q9 13 9 46q0 20 -4 50q-44 353 -99 396q62 37 113 37q58 0 70 -82q23 -157 35 -325q77 109 123 202t46 145q0 14 -7 34t-16 30q18 3 37 3q105 0 105 -68q0 -47 -71.5 -168t-191.5 -279q-104 -138 -176.5 -192t-132.5 -54q-67 0 -76 48z" />
<glyph unicode="&#x131;" horiz-adv-x="295" d="M284 134q-34 -32 -49 -35q-11 20 -11 43q0 55 15 121q2 7 43 162q5 18 11 50q6 33 -12 52q-15 16 -50 16q-43 0 -100 -21q15 -22 15 -50q0 -29 -5 -54q-23 -122 -37 -171q-26 -97 -20 -161q6 -92 89 -92q39 0 89.5 39.5t71.5 87.5q16 38 16 54q0 31 -66 -41z" />
<glyph unicode="&#x152;" horiz-adv-x="962" d="M624 757q110 13 261 13q21 0 57 2t48 2q52 0 69 -18q-6 -41 -27 -72.5t-52 -31.5q-1 0 -26.5 12.5t-57.5 12.5h-37q-15 0 -40 1t-35 1h-44q12 -13 12 -30q0 -11 -2 -16q-24 -112 -43 -192h59q85 0 177 15q0 -10 -3 -24q-6 -23 -18 -39.5t-25 -25t-34 -13.5t-38.5 -6 t-46.5 -1h-60h-30q-36 -113 -36 -182q0 -12 2 -22t5 -17t9.5 -12.5t10.5 -9.5t13 -6.5t13.5 -4t15.5 -2t14 -0.5h15h13q60 0 131 21.5t74 21.5q0 -45 -17 -74.5t-53 -43.5t-76 -18.5t-103 -4.5q-24 0 -70 0.5t-69 0.5q-72 0 -82 55q-97 -73 -204 -73q-109 0 -164.5 66 t-55.5 190q0 132 54 258.5t155 211t221 84.5q71 0 120 -29zM340 60q55 8 102 62.5t75.5 128.5t44.5 150t16 136q0 76 -27.5 120.5t-84.5 44.5q-58 0 -115 -76t-90 -182t-33 -197t27.5 -143.5t84.5 -43.5z" />
<glyph unicode="&#x153;" horiz-adv-x="796" d="M787 155q10 -8 10 -31q0 -30 -13 -46q-27 -33 -75 -55q-75 -33 -158 -33q-104 0 -149 65q-75 -65 -173 -65q-85 0 -134 52q-48 51 -48 134q0 141 96 256q96 114 228 114q97 0 143 -77q87 78 191 78q119 0 119 -104q-1 -52 -61 -110.5t-155 -92.5q-94 -36 -95 -67 q-3 -105 85 -105q86 0 189 87zM530 286l-10 -45q4 8 8 14.5t10 12.5l9.5 9.5t12.5 9.5t12 7.5t15 8.5t14 8q72 41 90 103q7 27 -2.5 46.5t-34.5 19.5q-39 0 -71 -50.5t-53 -143.5zM396 332q3 24 3 45q0 95 -57 95q-63 0 -108 -109q-39 -95 -39 -190q0 -109 65 -109 q61 0 101 105q29 78 35 163z" />
<glyph unicode="&#x178;" horiz-adv-x="617" d="M492 881q0 -46 52 -46q40 0 80 24q17 43 17 66q0 24 -16.5 37.5t-45.5 13.5q-33 0 -75 -21q0 -6 -6 -29t-6 -45zM276 881q0 -46 52 -46q40 0 80 24q17 43 17 66q0 24 -16.5 37.5t-45.5 13.5q-33 0 -75 -21q0 -6 -6 -29t-6 -45zM463 378l63 76.5l83 103t63 98t30 90.5 q0 30 -27.5 47.5t-79.5 17.5q-19 0 -29 -2q3 -17 3 -34q0 -36 -12 -61q-7 -16 -14 -29l-12.5 -23.5t-20.5 -35l-25.5 -41.5l-40.5 -66l-54 -87q-45 216 -78 293q-25 60 -84 60q-65 0 -131 -63q4 -1 12 -5.5t13 -6.5q40 -18 84 -128.5t68 -262.5q-6 -51 -54 -150.5 t-48 -138.5q0 -46 63 -46q55 0 105 25q-11 29 -11 54q0 51 41.5 148.5t92.5 166.5z" />
<glyph unicode="&#x2c6;" horiz-adv-x="500" d="M508 636q-8 -3 -20 -8.5t-18 -7.5q-8 -6 -15 -6q-16 0 -48 23.5t-61 55.5q-103 -78 -147 -78q-20 0 -41 10v1q-1 2 -1 3q0 6 11 13q24 16 68 55q86 74 131 90q7 3 17 3q15 0 24 -6q11 -32 40.5 -75.5t59.5 -72.5z" />
<glyph unicode="&#x2dc;" horiz-adv-x="500" d="M555 752q-8 -55 -42 -91q-32 -37 -77 -37q-37 0 -112 41q-66 37 -94 37q-8 0 -13 -2q-31 -9 -44 -62q-1 -3 -3.5 -8.5t-3.5 -8.5q-1 -1 -3 -1q-11 0 -21 8q-11 9 -11 17q0 5 1.5 15t1.5 12q11 49 40 81q31 32 73 32q35 1 114 -40q70 -36 97 -36q3 0 11 2q32 8 45 65 q4 10 5 15q1 1 3 1q4 0 11 -3q22 -10 22 -37z" />
<glyph unicode="&#x2013;" horiz-adv-x="500" d="M489 350q-7 -46 -18.5 -67t-35.5 -30q-50 -10 -125 -10h-96q-92 0 -135 -12q14 66 16 73q9 25 37 34q24 2 44 2q19 0 72 -1.5t86 -1.5q113 0 155 13z" />
<glyph unicode="&#x2014;" horiz-adv-x="917" d="M150 331q51 9 134 9q49 0 154 -3.5t144 -4.5q273 0 326 17q-7 -43 -14.5 -61.5t-22.5 -27.5q-49 -17 -225 -17q-17 0 -110 1t-138 1q-271 0 -319 -15q7 41 28.5 66.5t42.5 34.5z" />
<glyph unicode="&#x2018;" horiz-adv-x="278" d="M365 768q11 0 23.5 -8t12.5 -23q0 -5 -4 -13q-114 -20 -114 -111q0 -29 23 -62q-15 -14 -45 -24.5t-53 -10.5q-59 0 -59 52q0 64 69 127q32 29 73 51t74 22z" />
<glyph unicode="&#x2019;" horiz-adv-x="278" d="M134 516q-11 0 -23.5 8t-12.5 23q0 5 4 13q114 20 114 111q0 29 -23 62q15 14 45 24.5t53 10.5q59 0 59 -52q0 -64 -69 -127q-32 -29 -73 -51t-74 -22z" />
<glyph unicode="&#x201a;" horiz-adv-x="278" d="M18 -96q-11 0 -23.5 8t-12.5 23q0 5 4 13q114 20 114 111q0 29 -23 62q15 14 45 24.5t53 10.5q59 0 59 -52q0 -64 -69 -127q-32 -29 -73 -51t-74 -22z" />
<glyph unicode="&#x201c;" horiz-adv-x="492" d="M577 768q11 0 23.5 -8t12.5 -23q0 -5 -4 -13q-114 -20 -114 -111q0 -29 23 -62q-15 -14 -45 -24.5t-53 -10.5q-59 0 -59 52q0 64 69 127q32 29 73 51t74 22zM398 724q-115 -20 -115 -111q0 -30 24 -62q-15 -14 -45.5 -24.5t-53.5 -10.5q-59 0 -59 52q0 65 70 127 q82 73 147 73q10 0 23 -8.5t13 -22.5q0 -5 -4 -13z" />
<glyph unicode="&#x201d;" horiz-adv-x="492" d="M136 516q-11 0 -23.5 8t-12.5 23q0 5 4 13q114 20 114 111q0 29 -23 62q15 14 45 24.5t53 10.5q59 0 59 -52q0 -64 -69 -127q-32 -29 -73 -51t-74 -22zM315 560q115 20 115 111q0 30 -24 62q15 14 45.5 24.5t53.5 10.5q59 0 59 -52q0 -65 -70 -127q-82 -73 -147 -73 q-10 0 -23 8.5t-13 22.5q0 5 4 13z" />
<glyph unicode="&#x201e;" horiz-adv-x="492" d="M21 -96q-11 0 -23.5 8t-12.5 23q0 5 4 13q114 20 114 111q0 29 -23 62q15 14 45 24.5t53 10.5q59 0 59 -52q0 -64 -69 -127q-32 -29 -73 -51t-74 -22zM200 -52q115 20 115 111q0 30 -24 62q15 14 45.5 24.5t53.5 10.5q59 0 59 -52q0 -65 -70 -127q-82 -73 -147 -73 q-10 0 -23 8.5t-13 22.5q0 5 4 13z" />
<glyph unicode="&#x2022;" horiz-adv-x="541" d="M481 354q0 -54 -40 -150q-81 -45 -161 -45q-107 0 -117 82q-1 6 -1 22q0 24 6 51q9 42 11 55q7 33 12 63q80 37 154 37q63 0 99.5 -29t36.5 -86z" />
<glyph unicode="&#x2026;" horiz-adv-x="909" d="M837 34q-13 -22 -37 -35t-50 -13q-58 0 -60 57q0 7 -0.5 19t-0.5 17q0 8 0.5 18.5t0.5 13.5q35 18 65 21q3 0 8 0.5t8 0.5q26 0 44 -16q22 -19 22 -83zM535 34q-30 -48 -88 -48t-60 57q0 7 -0.5 18.5t-0.5 16.5q0 19 2 33q35 18 64 21q3 0 9 0.5t8 0.5q26 -2 44 -16 q22 -17 22 -83zM232 34q-30 -48 -88 -48t-60 57q0 7 -0.5 18.5t-0.5 16.5q0 19 2 33q35 18 64 21q3 0 8.5 0.5t7.5 0.5q27 -2 45 -16q22 -19 22 -83z" />
<glyph unicode="&#x2039;" horiz-adv-x="325" d="M160 267q119 -89 107 -175q-4 -17 -11 -24q-26 28 -76 69.5t-91 69.5q-2 1 -11 7t-11 7.5t-8.5 7t-8.5 9.5l-5.5 11t-4.5 15.5t-1 18.5q11 10 27 17q56 23 118.5 62t109.5 80q10 9 21 16q11 -9 11 -23q-12 -79 -166 -168z" />
<glyph unicode="&#x203a;" horiz-adv-x="325" d="M206 259q-119 89 -107 175q4 17 11 24q26 -28 76 -69.5t91 -69.5q2 -1 11 -7t11 -7.5t8.5 -7t8.5 -9.5l5.5 -11t4.5 -15.5t1 -18.5q-11 -10 -27 -17q-56 -23 -118.5 -62t-109.5 -80q-10 -9 -21 -16q-11 9 -11 23q12 79 166 168z" />
<glyph unicode="&#x20ac;" horiz-adv-x="664" d="M127 240q-59 -2 -82 -9q7 45 19.5 58t45.5 13h19q4 47 17 94q-64 -2 -92 -9q8 50 21.5 64.5t50.5 14.5q26 0 42 -1q55 141 166 231.5t246 90.5q76 0 123 -25.5t47 -76.5q0 -63 -94 -104q-15 64 -44.5 93.5t-83.5 29.5q-74 0 -127.5 -68t-84.5 -174q205 0 235 10 q-12 -41 -24.5 -55.5t-34.5 -16.5q-52 -4 -192 -4q-9 -49 -12 -97q178 0 204 9q-10 -37 -21.5 -50t-31.5 -15q-63 -3 -151 -3q10 -163 142 -163q50 0 108 29t108 76q14 -38 14 -53q0 -55 -95 -103t-202 -48q-119 0 -177.5 68t-58.5 194z" />
<glyph unicode="&#x2122;" horiz-adv-x="857" d="M882 765q-16 -34 -28.5 -104.5t-14.5 -136.5q0 -26 3 -43.5t6.5 -24t11.5 -17.5q-34 -27 -73 -27q-45 0 -45 42q0 26 7.5 85t10.5 70q-107 -176 -158 -176q-53 0 -67 183q-6 -23 -24.5 -77.5t-22.5 -71.5q-4 -18 7 -35q-19 -20 -48 -20q-41 0 -41 30q0 14 3 23 q11 34 36 100t42.5 116.5t18.5 76.5q20 12 45 12q18 0 33.5 -8.5t18.5 -26.5q2 -10 8.5 -58.5t13 -87t12.5 -55.5q19 25 87 133q23 39 35.5 55t40 30t67.5 14q10 0 15 -1zM334 687q1 6 35 6q46 0 64 10t37 53q4 9 -1 18q-40 -13 -117 -13h-51q-9 0 -34.5 1t-35.5 1 q-51 0 -72 -13.5t-37 -59.5q-3 -7 -3 -20q4 1 17 6t17 6l16 4t21 4t23.5 2t31.5 1q-11 -12 -21 -38q-53 -156 -53 -203q0 -40 53 -40q39 0 62 11q-14 16 -14 35q0 13 11 52l27.5 93.5t23.5 83.5z" />
</font>
</defs>
</svg>
